# Blender 4.0.2
# www.blender.org
mtllib Дрова.mtl
o Дрова
v -1.977627 1.147026 0.582519
v -0.979825 1.071579 0.546468
v -1.977627 1.147026 0.003324
v -0.979825 1.071579 0.039375
v -2.000461 0.568281 0.582519
v -0.999817 0.564880 0.546468
v -2.000461 0.568281 0.003324
v -0.999817 0.564880 0.039375
v 0.017042 0.972449 0.486715
v 0.017042 0.972449 0.099128
v 0.001761 0.585162 0.099128
v 0.001761 0.585162 0.486715
v 1.014406 0.885931 0.439584
v 1.014406 0.885931 0.146258
v 1.002842 0.592833 0.146258
v 1.002842 0.592833 0.439584
v 2.012400 0.815376 0.408429
v 2.012400 0.815376 0.177414
v 2.003293 0.584540 0.177414
v 2.003293 0.584540 0.408429
v -0.229734 0.665815 0.502954
v -0.023312 0.967587 0.417732
v -1.977627 0.602292 0.289598
v -0.979825 0.526845 0.253547
v -1.977627 0.602292 -0.289598
v -0.979825 0.526845 -0.253547
v -2.000461 0.023547 0.289598
v -0.999817 0.020146 0.253547
v -2.000461 0.023547 -0.289598
v -0.999817 0.020146 -0.253547
v 0.017042 0.427715 0.193794
v 0.017042 0.427715 -0.193794
v 0.001761 0.040429 -0.193794
v 0.001761 0.040429 0.193794
v 1.014406 0.341197 0.146663
v 1.014406 0.341197 -0.146663
v 1.002842 0.048099 -0.146663
v 1.002842 0.048099 0.146663
v 2.012400 0.270643 0.115508
v 2.012400 0.270643 -0.115508
v 2.003293 0.039807 -0.115508
v 2.003293 0.039807 0.115508
v -0.229734 0.121082 0.210033
v -0.023312 0.422854 0.124811
v -1.977627 0.602292 1.289598
v -0.979825 0.526845 1.253547
v -1.977627 0.602292 0.710402
v -0.979825 0.526845 0.746453
v -2.000461 0.023547 1.289598
v -0.999817 0.020146 1.253547
v -2.000461 0.023547 0.710402
v -0.999817 0.020146 0.746453
v 0.017042 0.427715 1.193794
v 0.017042 0.427715 0.806206
v 0.001761 0.040429 0.806206
v 0.001761 0.040429 1.193794
v 1.014406 0.341197 1.146663
v 1.014406 0.341197 0.853337
v 1.002842 0.048099 0.853337
v 1.002842 0.048099 1.146663
v 2.012400 0.270643 1.115508
v 2.012400 0.270643 0.884492
v 2.003293 0.039807 0.884492
v 2.003293 0.039807 1.115508
v -0.229734 0.121082 1.210032
v -0.023312 0.422854 1.124811
v 1.971716 1.147026 1.082519
v 0.973915 1.071579 1.046468
v 1.971716 1.147026 0.503324
v 0.973915 1.071579 0.539375
v 1.994550 0.568281 1.082519
v 0.993906 0.564880 1.046468
v 1.994550 0.568281 0.503324
v 0.993906 0.564880 0.539375
v -0.022952 0.972449 0.986715
v -0.022952 0.972449 0.599128
v -0.007672 0.585162 0.599128
v -0.007672 0.585162 0.986715
v -1.020316 0.885931 0.939584
v -1.020316 0.885931 0.646258
v -1.008752 0.592833 0.646258
v -1.008752 0.592833 0.939584
v -2.018311 0.815376 0.908429
v -2.018311 0.815376 0.677414
v -2.009203 0.584540 0.677414
v -2.009203 0.584540 0.908429
v 0.223823 0.665815 1.002954
v 0.017402 0.967587 0.917732
v 1.971716 0.602292 0.789598
v 0.973915 0.526845 0.753547
v 1.971716 0.602292 0.210402
v 0.973915 0.526845 0.246453
v 1.994550 0.023547 0.789598
v 0.993906 0.020146 0.753547
v 1.994550 0.023547 0.210402
v 0.993906 0.020146 0.246453
v -0.022952 0.427715 0.693794
v -0.022952 0.427715 0.306206
v -0.007672 0.040429 0.306206
v -0.007672 0.040429 0.693794
v -1.020316 0.341197 0.646663
v -1.020316 0.341197 0.353337
v -1.008752 0.048099 0.353337
v -1.008752 0.048099 0.646663
v -2.018311 0.270643 0.615508
v -2.018311 0.270643 0.384492
v -2.009203 0.039807 0.384492
v -2.009203 0.039807 0.615508
v 0.223823 0.121082 0.710033
v 0.017402 0.422854 0.624811
v 2.087979 1.559689 0.832519
v 0.973915 1.484242 0.796468
v 2.087979 1.559689 0.253324
v 0.973915 1.484242 0.289375
v 2.110813 0.980944 0.832519
v 0.993906 0.977543 0.796468
v 2.110813 0.980944 0.253324
v 0.993906 0.977543 0.289375
v -0.022952 1.385112 0.736715
v -0.022952 1.385112 0.349128
v -0.007672 0.997826 0.349128
v -0.007672 0.997826 0.736715
v -1.020316 1.298594 0.689584
v -1.020316 1.298594 0.396258
v -1.008752 1.005496 0.396258
v -1.008752 1.005496 0.689584
v -1.895110 1.228039 0.658429
v -1.895110 1.228039 0.427414
v -1.886002 0.997203 0.427414
v -1.886002 0.997203 0.658429
vn 0.0754 0.9972 -0.0000
vn 0.0360 -0.0014 -0.9994
vn -0.0034 -1.0000 -0.0000
vn 0.0360 -0.0014 0.9994
vn 0.0202 -0.9998 -0.0000
vn 0.0864 0.9963 -0.0000
vn 0.0990 0.9951 -0.0000
vn 0.0596 -0.0024 0.9982
vn 0.0596 -0.0024 -0.9982
vn 0.0311 -0.0012 0.9995
vn 0.0470 -0.0019 0.9989
vn 0.0470 -0.0019 -0.9989
vn 0.0077 -1.0000 -0.0000
vn 0.9992 -0.0394 -0.0000
vn 0.0311 -0.0012 -0.9995
vn -0.0083 -1.0000 -0.0000
vn 0.0705 0.9975 -0.0000
vn -0.9992 0.0394 -0.0000
vn 0.0754 -0.9972 -0.0000
vn 0.0360 0.0014 0.9994
vn -0.0034 1.0000 -0.0000
vn 0.0360 0.0014 -0.9994
vn 0.0202 0.9998 -0.0000
vn 0.0864 -0.9963 -0.0000
vn 0.0990 -0.9951 -0.0000
vn 0.0596 0.0024 -0.9982
vn 0.0596 0.0024 0.9982
vn 0.0311 0.0012 -0.9995
vn 0.0470 0.0019 -0.9989
vn 0.0470 0.0019 0.9989
vn 0.0077 1.0000 -0.0000
vn 0.9992 0.0394 -0.0000
vn 0.0311 0.0012 0.9995
vn -0.0083 1.0000 -0.0000
vn 0.0705 -0.9975 -0.0000
vn -0.9992 -0.0394 -0.0000
vn 0.0676 -0.9977 -0.0000
vn 0.0323 0.0013 0.9995
vn -0.0030 1.0000 -0.0000
vn 0.0323 0.0013 -0.9995
vn 0.0355 0.0014 -0.9994
vn 0.0355 0.0014 0.9994
vn -0.0095 1.0000 -0.0000
vn 0.0804 -0.9968 -0.0000
vt 0.015625 0.937500
vt 0.015625 0.953125
vt 0.000000 0.953125
vt 0.000000 0.937500
vt 0.000000 0.937500
vt 0.093750 0.953125
vt 0.109375 0.953125
vt 0.109375 0.968750
vt 0.093750 0.968750
s 0
usemtl Material
f 1/1/1 2/2/1 4/3/1 3/4/1
f 3/1/2 4/2/2 8/3/2 7/4/2
f 7/1/3 8/2/3 6/3/3 5/4/3
f 5/1/4 6/2/4 2/3/4 1/4/4
f 6/5/5 8/1/5 11/2/5 12/3/5
f 10/5/6 9/1/6 13/2/6 14/3/6
f 4/5/7 2/1/7 9/2/7 10/3/7
f 2/5/8 6/1/8 12/2/8 9/3/8
f 8/5/9 4/1/9 10/2/9 11/3/9
f 13/5/10 16/1/10 20/2/10 17/3/10
f 9/5/11 12/1/11 16/2/11 13/3/11
f 11/5/12 10/1/12 14/2/12 15/3/12
f 12/5/13 11/1/13 15/2/13 16/3/13
f 19/6/14 18/7/14 17/8/14 20/9/14
f 15/5/15 14/1/15 18/2/15 19/3/15
f 16/5/16 15/1/16 19/2/16 20/3/16
f 14/5/17 13/1/17 17/2/17 18/3/17
f 3/7/18 7/8/18 5/9/18 1/6/18
f 23/1/1 24/2/1 26/3/1 25/4/1
f 25/1/2 26/2/2 30/3/2 29/4/2
f 29/1/3 30/2/3 28/3/3 27/4/3
f 27/1/4 28/2/4 24/3/4 23/4/4
f 28/5/5 30/1/5 33/2/5 34/3/5
f 32/5/6 31/1/6 35/2/6 36/3/6
f 26/5/7 24/1/7 31/2/7 32/3/7
f 24/5/8 28/1/8 34/2/8 31/3/8
f 30/5/9 26/1/9 32/2/9 33/3/9
f 35/5/10 38/1/10 42/2/10 39/3/10
f 31/5/11 34/1/11 38/2/11 35/3/11
f 33/5/12 32/1/12 36/2/12 37/3/12
f 34/5/13 33/1/13 37/2/13 38/3/13
f 41/6/14 40/7/14 39/8/14 42/9/14
f 37/5/15 36/1/15 40/2/15 41/3/15
f 38/5/16 37/1/16 41/2/16 42/3/16
f 36/5/17 35/1/17 39/2/17 40/3/17
f 25/7/18 29/8/18 27/9/18 23/6/18
f 45/1/1 46/2/1 48/3/1 47/4/1
f 47/1/2 48/2/2 52/3/2 51/4/2
f 51/1/3 52/2/3 50/3/3 49/4/3
f 49/1/4 50/2/4 46/3/4 45/4/4
f 50/5/5 52/1/5 55/2/5 56/3/5
f 54/5/6 53/1/6 57/2/6 58/3/6
f 48/5/7 46/1/7 53/2/7 54/3/7
f 46/5/8 50/1/8 56/2/8 53/3/8
f 52/5/9 48/1/9 54/2/9 55/3/9
f 57/5/10 60/1/10 64/2/10 61/3/10
f 53/5/11 56/1/11 60/2/11 57/3/11
f 55/5/12 54/1/12 58/2/12 59/3/12
f 56/5/13 55/1/13 59/2/13 60/3/13
f 63/6/14 62/7/14 61/8/14 64/9/14
f 59/5/15 58/1/15 62/2/15 63/3/15
f 60/5/16 59/1/16 63/2/16 64/3/16
f 58/5/17 57/1/17 61/2/17 62/3/17
f 47/7/18 51/8/18 49/9/18 45/6/18
f 67/1/19 68/2/19 70/3/19 69/4/19
f 69/1/20 70/2/20 74/3/20 73/4/20
f 73/1/21 74/2/21 72/3/21 71/4/21
f 71/1/22 72/2/22 68/3/22 67/4/22
f 72/5/23 74/1/23 77/2/23 78/3/23
f 76/5/24 75/1/24 79/2/24 80/3/24
f 70/5/25 68/1/25 75/2/25 76/3/25
f 68/5/26 72/1/26 78/2/26 75/3/26
f 74/5/27 70/1/27 76/2/27 77/3/27
f 79/5/28 82/1/28 86/2/28 83/3/28
f 75/5/29 78/1/29 82/2/29 79/3/29
f 77/5/30 76/1/30 80/2/30 81/3/30
f 78/5/31 77/1/31 81/2/31 82/3/31
f 85/6/32 84/7/32 83/8/32 86/9/32
f 81/5/33 80/1/33 84/2/33 85/3/33
f 82/5/34 81/1/34 85/2/34 86/3/34
f 80/5/35 79/1/35 83/2/35 84/3/35
f 69/7/36 73/8/36 71/9/36 67/6/36
f 89/1/19 90/2/19 92/3/19 91/4/19
f 91/1/20 92/2/20 96/3/20 95/4/20
f 95/1/21 96/2/21 94/3/21 93/4/21
f 93/1/22 94/2/22 90/3/22 89/4/22
f 94/5/23 96/1/23 99/2/23 100/3/23
f 98/5/24 97/1/24 101/2/24 102/3/24
f 92/5/25 90/1/25 97/2/25 98/3/25
f 90/5/26 94/1/26 100/2/26 97/3/26
f 96/5/27 92/1/27 98/2/27 99/3/27
f 101/5/28 104/1/28 108/2/28 105/3/28
f 97/5/29 100/1/29 104/2/29 101/3/29
f 99/5/30 98/1/30 102/2/30 103/3/30
f 100/5/31 99/1/31 103/2/31 104/3/31
f 107/6/32 106/7/32 105/8/32 108/9/32
f 103/5/33 102/1/33 106/2/33 107/3/33
f 104/5/34 103/1/34 107/2/34 108/3/34
f 102/5/35 101/1/35 105/2/35 106/3/35
f 91/7/36 95/8/36 93/9/36 89/6/36
f 111/1/37 112/2/37 114/3/37 113/4/37
f 113/1/38 114/2/38 118/3/38 117/4/38
f 117/1/39 118/2/39 116/3/39 115/4/39
f 115/1/40 116/2/40 112/3/40 111/4/40
f 116/5/23 118/1/23 121/2/23 122/3/23
f 120/5/24 119/1/24 123/2/24 124/3/24
f 114/5/25 112/1/25 119/2/25 120/3/25
f 112/5/26 116/1/26 122/2/26 119/3/26
f 118/5/27 114/1/27 120/2/27 121/3/27
f 123/5/41 126/1/41 130/2/41 127/3/41
f 119/5/29 122/1/29 126/2/29 123/3/29
f 121/5/30 120/1/30 124/2/30 125/3/30
f 122/5/31 121/1/31 125/2/31 126/3/31
f 129/6/32 128/7/32 127/8/32 130/9/32
f 125/5/42 124/1/42 128/2/42 129/3/42
f 126/5/43 125/1/43 129/2/43 130/3/43
f 124/5/44 123/1/44 127/2/44 128/3/44
f 113/7/36 117/8/36 115/9/36 111/6/36
l 21 22
l 43 44
l 65 66
l 87 88
l 109 110
