# Blender 4.0.2
# www.blender.org
mtllib Колодец.mtl
o Колодец
v 0.000000 0.000000 -1.000000
v -0.866025 0.000000 -0.500000
v -0.866025 0.000000 0.500000
v 0.000000 0.000000 1.000000
v 0.866025 0.000000 0.500000
v 0.866025 0.000000 -0.500000
v -0.618726 0.895386 -0.357222
v 0.000000 0.895386 -0.714443
v -0.618726 0.895386 0.357222
v 0.000000 0.895386 0.714443
v 0.618726 0.895386 0.357222
v 0.618726 0.895386 -0.357222
v -0.773951 0.895386 -0.446841
v 0.000000 0.895386 -0.893682
v -0.773951 0.895386 0.446841
v 0.000000 0.895386 0.893682
v 0.773951 0.895386 0.446841
v 0.773951 0.895386 -0.446841
v 0.779582 0.551802 -0.000000
v -0.779582 0.551802 0.000000
v 0.779582 2.110965 -0.000000
v -0.779582 2.110965 0.000000
vn -0.0000 1.0000 -0.0000
vn 0.4974 0.1023 -0.8615
vn 0.4974 0.1023 0.8615
vn -0.9948 0.1023 -0.0000
vn 0.9948 0.1023 -0.0000
vn -0.4974 0.1023 0.8615
vn -0.4974 0.1023 -0.8615
vn -0.0000 -0.0000 -1.0000
vt 0.008875 0.981179
vt 0.013156 0.978708
vt 0.013156 0.973766
vt 0.008875 0.971295
vt 0.004595 0.973766
vt 0.004595 0.978708
vt 0.079102 0.953125
vt 0.094727 0.953125
vt 0.094727 0.968750
vt 0.079102 0.968750
vt 0.093222 0.964844
vt 0.080606 0.964844
vt 0.079102 0.967773
vt 0.094727 0.967773
vt 0.000000 0.859375
vt 0.031250 0.859375
vt 0.031250 0.890625
vt 0.000000 0.890625
s 0
usemtl Material
f 7/1/1 9/2/1 10/3/1 11/4/1 12/5/1 8/6/1
f 6/7/2 1/8/2 14/9/2 18/10/2
f 4/7/3 5/8/3 17/9/3 16/10/3
f 2/7/4 3/8/4 15/9/4 13/10/4
f 5/7/5 6/8/5 18/9/5 17/10/5
f 3/7/6 4/8/6 16/9/6 15/10/6
f 1/7/7 2/8/7 13/9/7 14/10/7
f 7/11/1 8/12/1 14/13/1 13/14/1
f 9/11/1 7/12/1 13/13/1 15/14/1
f 10/11/1 9/12/1 15/13/1 16/14/1
f 11/11/1 10/12/1 16/13/1 17/14/1
f 12/11/1 11/12/1 17/13/1 18/14/1
f 8/11/1 12/12/1 18/13/1 14/14/1
f 19/15/8 20/16/8 22/17/8 21/18/8
