# Blender 4.0.2
# www.blender.org
mtllib библия.mtl
o библия
v -0.125000 0.000000 0.187500
v -0.125000 0.062500 0.187500
v -0.125000 0.000000 -0.187500
v -0.125000 0.062500 -0.187500
v 0.125000 0.000000 0.187500
v 0.125000 0.062500 0.187500
v 0.125000 0.000000 -0.187500
v 0.125000 0.062500 -0.187500
vn -1.0000 -0.0000 -0.0000
vn -0.0000 -0.0000 -1.0000
vn 1.0000 -0.0000 -0.0000
vn -0.0000 -0.0000 1.0000
vn -0.0000 -1.0000 -0.0000
vn -0.0000 1.0000 -0.0000
vt 0.024350 0.971744
vt 0.024350 0.968969
vt 0.027124 0.968969
vt 0.027124 0.971744
vt 0.031250 0.968750
vt 0.031250 0.971680
vt 0.019531 0.971680
vt 0.019531 0.968750
vt 0.022461 0.984375
vt 0.019531 0.984375
vt 0.022461 0.971680
vt 0.023438 0.976562
vt 0.024414 0.976562
vt 0.024414 0.977539
vt 0.023438 0.977539
vt 0.031250 0.984375
s 0
usemtl Material
f 1/1/1 2/2/1 4/3/1 3/4/1
f 3/5/2 4/6/2 8/7/2 7/8/2
f 7/9/3 8/10/3 6/7/3 5/11/3
f 5/8/4 6/7/4 2/6/4 1/5/4
f 3/12/5 7/13/5 5/14/5 1/15/5
f 8/11/6 4/6/6 2/16/6 6/9/6
