# Blender 4.0.2
# www.blender.org
mtllib Бочка_003.mtl
o Бочка.003
v -0.128251 0.000000 0.307427
v -0.307427 0.000000 0.128251
v -0.307427 0.797867 0.128251
v -0.128251 0.797867 0.307427
v -0.307427 0.000000 -0.128251
v -0.128251 0.000000 -0.307427
v -0.128251 0.797867 -0.307427
v -0.307427 0.797867 -0.128251
v 0.307427 0.000000 0.128251
v 0.128251 0.000000 0.307427
v 0.128251 0.797867 0.307427
v 0.307427 0.797867 0.128251
v 0.128251 0.000000 -0.307427
v 0.307427 0.000000 -0.128251
v 0.307427 0.797867 -0.128251
v 0.128251 0.797867 -0.307427
v -0.145478 0.398934 0.348722
v -0.348722 0.398934 0.145478
v -0.145478 0.398934 -0.348722
v -0.348722 0.398934 -0.145478
v 0.348722 0.398934 -0.145478
v 0.145478 0.398934 -0.348722
v 0.145478 0.398934 0.348722
v 0.348722 0.398934 0.145478
vn -0.0000 0.1030 0.9947
vn 0.9947 0.1030 -0.0000
vn -0.0000 1.0000 -0.0000
vn -0.9947 0.1030 -0.0000
vn -0.0000 0.1030 -0.9947
vn -0.7033 0.1032 0.7033
vn -0.7033 -0.1032 -0.7033
vn 0.7033 -0.1032 -0.7033
vn 0.7033 -0.1032 0.7033
vn -0.0000 -1.0000 -0.0000
vn 0.7033 0.1032 0.7033
vn 0.7033 0.1032 -0.7033
vn -0.7033 0.1032 -0.7033
vn -0.7033 -0.1032 0.7033
vn -0.0000 -0.1030 -0.9947
vn -0.9947 -0.1030 -0.0000
vn 0.9947 -0.1030 -0.0000
vn -0.0000 -0.1030 0.9947
vt 0.052734 0.990723
vt 0.052734 1.000000
vt 0.046875 1.000000
vt 0.046875 0.990723
vt 0.092773 0.983398
vt 0.088867 0.993164
vt 0.079102 0.989258
vt 0.062500 0.990723
vt 0.062500 1.000000
vt 0.053223 0.990723
vt 0.046875 0.981445
vt 0.053711 0.981445
vt 0.052734 0.981445
vt 0.062500 0.981445
vt 0.063070 0.995862
vt 0.064445 0.994487
vt 0.066414 0.994487
vt 0.067789 0.995862
vt 0.067789 0.997831
vt 0.066414 0.999206
vt 0.064445 0.999206
vt 0.063070 0.997831
vt 0.079102 0.983398
vt 0.083008 0.979492
vt 0.088867 0.979492
vt 0.092773 0.989258
vt 0.083008 0.993164
vt 0.053711 1.000000
s 0
usemtl Material
f 23/1/1 11/2/1 4/3/1 17/4/1
f 21/1/2 15/2/2 12/3/2 24/4/2
f 8/5/3 4/6/3 12/7/3
f 18/8/4 3/9/4 8/2/4 20/10/4
f 19/1/5 7/2/5 16/3/5 22/4/5
f 17/8/6 4/9/6 3/2/6 18/1/6
f 19/4/7 6/11/7 5/12/7 20/10/7
f 21/1/8 14/13/8 13/14/8 22/8/8
f 23/1/9 10/13/9 9/14/9 24/8/9
f 5/15/10 6/16/10 13/17/10 14/18/10 9/19/10 10/20/10 1/21/10 2/22/10
f 12/7/3 15/23/3 16/24/3
f 16/24/3 7/25/3 8/5/3
f 8/5/3 3/26/3 4/6/3
f 4/6/3 11/27/3 12/7/3
f 12/7/3 16/24/3 8/5/3
f 11/2/11 23/1/11 24/8/11 12/9/11
f 15/2/12 21/1/12 22/8/12 16/9/12
f 7/3/13 19/4/13 20/10/13 8/28/13
f 1/14/14 17/8/14 18/1/14 2/13/14
f 6/13/15 19/1/15 22/4/15 13/11/15
f 2/14/16 18/8/16 20/10/16 5/13/16
f 14/13/17 21/1/17 24/4/17 9/11/17
f 10/13/18 23/1/18 17/4/18 1/11/18
