# Blender 4.0.2
# www.blender.org
mtllib Ящик_002.mtl
o Ящик.002
v -0.311373 0.000000 0.311373
v -0.311373 0.622747 0.311373
v -0.311373 0.000000 -0.311373
v -0.311373 0.622747 -0.311373
v 0.311373 0.000000 0.311373
v 0.311373 0.622747 0.311373
v 0.311373 0.000000 -0.311373
v 0.311373 0.622747 -0.311373
vn -1.0000 -0.0000 -0.0000
vn -0.0000 -0.0000 -1.0000
vn 1.0000 -0.0000 -0.0000
vn -0.0000 -0.0000 1.0000
vn -0.0000 -1.0000 -0.0000
vn -0.0000 1.0000 -0.0000
vt 0.015625 0.937500
vt 0.031250 0.937500
vt 0.031250 0.953125
vt 0.015625 0.953125
s 0
usemtl Material
f 1/1/1 2/2/1 4/3/1 3/4/1
f 3/1/2 4/2/2 8/3/2 7/4/2
f 7/1/3 8/2/3 6/3/3 5/4/3
f 5/1/4 6/2/4 2/3/4 1/4/4
f 3/1/5 7/2/5 5/3/5 1/4/5
f 8/1/6 4/2/6 2/3/6 6/4/6
