# Blender 4.0.2
# www.blender.org
mtllib Камушек_001.mtl
o Камушек.001
v -0.126851 0.000000 0.056694
v -0.126851 0.113388 0.056694
v -0.126851 0.000000 -0.056694
v -0.126851 0.113388 -0.056694
v 0.126850 0.000000 0.065702
v 0.126850 0.113388 0.065702
v 0.126850 0.000000 -0.065702
v 0.126850 0.113388 -0.065702
vn -1.0000 -0.0000 -0.0000
vn -0.0355 -0.0000 -0.9994
vn 1.0000 -0.0000 -0.0000
vn -0.0355 -0.0000 0.9994
vn -0.0000 -1.0000 -0.0000
vn -0.0000 1.0000 -0.0000
vt 0.120934 0.931481
vt 0.120934 0.935706
vt 0.125159 0.935706
vt 0.125159 0.931481
vt 0.118320 0.931481
vt 0.118320 0.935706
vt 0.127774 0.935706
vt 0.127774 0.931481
vt 0.125495 0.931481
vt 0.125495 0.935706
vt 0.120599 0.935706
vt 0.120599 0.931481
vt 0.127774 0.936042
vt 0.127774 0.931145
s 0
usemtl Material
f 1/1/1 2/2/1 4/3/1 3/4/1
f 3/5/2 4/6/2 8/7/2 7/8/2
f 7/9/3 8/10/3 6/11/3 5/12/3
f 5/8/4 6/7/4 2/6/4 1/5/4
f 3/6/5 7/13/5 5/14/5 1/5/5
f 8/13/6 4/6/6 2/5/6 6/14/6
