# Blender 4.0.2
# www.blender.org
mtllib Пень_002.mtl
o Пень.002
v -0.175022 0.040799 0.351190
v -0.671370 0.792299 0.163578
v -0.175022 0.040799 -0.185153
v -0.671370 0.792299 -0.146688
v 0.361321 0.040799 0.351190
v -0.390677 0.924499 0.163578
v 0.361321 0.040799 -0.185153
v -0.390677 0.924499 -0.146688
v -0.456271 1.397615 0.293705
v -0.456271 1.397615 0.028573
v -0.301866 1.182083 0.028573
v -0.301866 1.182083 0.293705
v 0.139753 1.392024 0.621420
v 0.054040 1.420265 0.466287
v 0.141878 1.282179 0.392618
v 0.227591 1.253938 0.547750
v 0.722014 1.226956 0.326139
v 0.696492 1.235365 0.279946
v 0.650616 1.170360 0.293460
v 0.676139 1.161951 0.339652
v 0.535873 0.571158 0.321497
v 0.565013 0.412882 0.322469
v 0.590878 0.571158 0.389652
v 0.596080 0.412882 0.360964
v 0.634569 0.413821 0.329902
v 0.659021 0.572821 0.334658
v 0.603501 0.413821 0.291407
v 0.604017 0.572821 0.266503
v 0.590728 0.491672 0.401091
v 0.524661 0.491672 0.319227
v 0.606510 0.493669 0.253172
v 0.672577 0.493669 0.335035
v 0.575731 0.556588 0.357817
v 0.575731 1.181587 0.357817
v 0.624368 0.556588 0.318565
v 0.624368 1.181587 0.318565
v 0.575731 1.181587 0.357817
v 0.624368 1.181587 0.318565
v 0.336986 1.350309 0.412349
v -0.394671 1.350309 0.412349
v 0.336986 2.081966 0.412349
v -0.394671 2.081966 0.412349
v -0.124547 0.000000 1.048163
v 1.079794 0.000000 0.319747
v -0.852964 0.000000 -0.156177
v 0.351377 0.000000 -0.884594
v -0.522063 0.075100 -0.074696
v -0.043065 0.075100 0.717263
v 0.748893 0.075100 0.238265
v 0.269896 0.075100 -0.553693
vn -0.8344 -0.5511 -0.0000
vn -0.0068 0.0418 -0.9991
vn 0.7616 0.6481 -0.0000
vn -0.0324 0.2000 0.9793
vn 0.9454 -0.3260 -0.0000
vn -0.0717 0.9941 0.0814
vn -0.9423 0.3348 -0.0000
vn -0.0520 -0.2715 0.9610
vn 0.0680 0.3548 -0.9325
vn 0.3935 -0.1854 0.9004
vn -0.3925 -0.4374 0.8091
vn 0.5186 0.4998 -0.6937
vn 0.2428 -0.9633 -0.1142
vn 0.6699 -0.5713 -0.4741
vn -0.1729 0.2467 -0.9535
vn -0.2243 -0.9731 -0.0532
vn 0.2816 0.9593 0.0190
vn -0.7749 0.0915 0.6254
vn -0.6258 0.1103 -0.7721
vn 0.7717 0.1292 -0.6228
vn 0.6226 0.1103 0.7748
vn 0.0148 -0.9998 -0.0119
vn -0.0148 0.9998 0.0119
vn 0.5974 -0.3313 0.7303
vn 0.7390 -0.3134 -0.5964
vn -0.5876 -0.3313 -0.7382
vn -0.7292 -0.3492 0.5885
vn -0.6280 -0.0000 -0.7782
vn -0.0000 -0.0000 -1.0000
vn -0.0000 1.0000 -0.0000
vn -0.2546 0.9547 0.1540
vn 0.1540 0.9547 0.2546
vn 0.2546 0.9547 -0.1540
vn -0.1540 0.9547 -0.2546
vt 0.015625 0.937500
vt 0.015625 0.953125
vt 0.000000 0.953125
vt 0.000000 0.937500
vt 0.000000 0.937500
vt 0.006836 0.966797
vt 0.007812 0.968750
vt 0.005859 0.968750
vt 0.007812 0.964844
vt 0.007812 0.965820
vt 0.005859 0.965820
vt 0.005859 0.964844
vt 0.007812 0.967773
vt 0.005859 0.967773
vt 0.011719 0.958984
vt 0.011719 0.968750
vt 0.009766 0.968750
vt 0.009766 0.958984
vt 0.062500 0.921875
vt 0.078125 0.921875
vt 0.078125 0.937500
vt 0.062500 0.937500
vt 0.052225 0.895975
vt 0.072775 0.895975
vt 0.072775 0.916525
vt 0.052225 0.916525
vt 0.046875 0.921875
vt 0.046875 0.890625
vt 0.078125 0.890625
s 0
usemtl Material
f 1/1/1 2/2/1 4/3/1 3/4/1
f 3/1/2 4/2/2 8/3/2 7/4/2
f 7/1/3 8/2/3 6/3/3 5/4/3
f 5/1/4 6/2/4 2/3/4 1/4/4
f 6/5/5 8/1/5 11/2/5 12/3/5
f 10/5/6 9/1/6 13/2/6 14/3/6
f 4/5/7 2/1/7 9/2/7 10/3/7
f 2/5/8 6/1/8 12/2/8 9/3/8
f 8/5/9 4/1/9 10/2/9 11/3/9
f 13/5/10 16/1/10 20/2/10 17/3/10
f 9/5/11 12/1/11 16/2/11 13/3/11
f 11/5/12 10/1/12 14/2/12 15/3/12
f 12/5/13 11/1/13 15/2/13 16/3/13
f 19/5/14 18/1/14 17/2/14 20/3/14
f 15/5/15 14/1/15 18/2/15 19/3/15
f 16/5/16 15/1/16 19/2/16 20/3/16
f 14/5/17 13/1/17 17/2/17 18/3/17
f 29/6/18 23/7/18 21/8/18 30/6/18
f 30/6/19 21/7/19 28/8/19 31/6/19
f 31/6/20 28/7/20 26/8/20 32/6/20
f 32/6/21 26/7/21 23/8/21 29/6/21
f 22/9/22 27/10/22 25/11/22 24/12/22
f 28/13/23 21/7/23 23/8/23 26/14/23
f 25/9/24 32/6/24 29/6/24 24/12/24
f 27/9/25 31/6/25 32/6/25 25/12/25
f 22/9/26 30/6/26 31/6/26 27/12/26
f 24/9/27 29/6/27 30/6/27 22/12/27
f 33/15/28 34/16/28 36/17/28 35/18/28
f 39/19/29 40/20/29 42/21/29 41/22/29
f 48/23/30 49/24/30 50/25/30 47/26/30
f 48/23/31 47/26/31 45/27/31 43/28/31
f 49/24/32 48/23/32 43/28/32 44/29/32
f 50/25/33 49/24/33 44/29/33 46/20/33
f 47/26/34 50/25/34 46/20/34 45/27/34
l 37 38
