# Blender 4.0.2
# www.blender.org
mtllib Ракушка_003.mtl
o Ракушка.003
v -0.182946 0.000000 0.133586
v -0.075245 0.050331 0.085450
v -0.182946 0.000000 -0.133586
v -0.075245 0.050331 -0.085450
v 0.196197 0.098631 0.154812
v 0.088495 0.084359 0.099028
v 0.196197 0.000000 -0.154812
v 0.088495 0.050331 -0.099028
vn -0.4234 0.9060 -0.0000
vn -0.0398 0.7025 -0.7106
vn 0.2768 0.9156 -0.2917
vn -0.2533 0.8945 0.3685
vn -0.0140 0.9855 -0.1693
vn -0.2035 0.9791 -0.0000
vn -0.0429 0.9847 -0.1692
vn -0.2139 0.9625 0.1666
vn -0.0548 0.7489 -0.6605
vt 0.085938 1.000000
vt 0.084420 0.999023
vt 0.085938 0.994141
vt 0.081491 0.995117
vt 0.080078 0.994141
vt 0.080078 1.000000
vt 0.084420 0.995117
vt 0.081491 0.999023
s 0
usemtl Material
f 1/1/1 2/2/1 3/3/1
f 3/3/2 8/4/2 7/5/2
f 7/5/3 8/4/3 5/6/3
f 5/6/4 2/2/4 1/1/4
f 4/7/5 6/8/5 8/4/5
f 4/7/6 2/2/6 6/8/6
f 5/6/7 8/4/7 6/8/7
f 2/2/8 5/6/8 6/8/8
f 8/4/9 3/3/9 4/7/9
f 3/3/1 2/2/1 4/7/1
