# Blender 4.0.2
# www.blender.org
mtllib Ростущий_глаз_001.mtl
o Ростущий_глаз.001
v -0.164181 0.661399 0.301315
v 0.151501 2.411399 -0.208387
v -0.062500 0.223899 0.000000
v 0.062500 0.223899 0.000000
v -0.182097 1.098899 0.355983
v -0.069661 1.973899 0.026091
v -0.069661 1.973899 -0.098909
v -0.039181 0.661399 0.301315
v 0.151501 2.411399 -0.083387
v 0.234172 1.536399 0.251385
v 0.171672 1.536399 0.188885
v -0.057097 1.098899 0.355983
v -0.119597 1.098899 0.418483
v 0.171672 1.536399 0.313885
v 0.109172 1.536399 0.251385
v -0.101681 0.661399 0.363815
v -0.119597 1.098899 0.293483
v 0.214001 2.411399 -0.145887
v -0.132161 1.973899 -0.036409
v -0.007161 1.973899 -0.036409
v 0.000000 0.223899 0.062500
v 0.000000 0.223899 -0.062500
v 0.089001 2.411399 -0.145887
v -0.101681 0.661399 0.238815
v 0.567307 1.804625 -0.518387
v 0.655990 1.747395 -0.451417
v 0.117521 2.579684 -0.321011
v 0.184167 2.515217 -0.237182
v 0.581170 1.721775 -0.490889
v 0.642128 1.830245 -0.478916
v 0.129655 2.493918 -0.303419
v 0.172033 2.600982 -0.254775
v -0.250000 0.000000 0.250000
v 0.250000 0.000000 0.250000
v -0.250000 0.000000 -0.250000
v 0.250000 0.000000 -0.250000
v -0.062500 0.234375 -0.062500
v -0.062500 0.234375 0.062500
v 0.062500 0.234375 0.062500
v 0.062500 0.234375 -0.062500
v 0.562049 1.987077 -0.527880
v 0.808546 1.901032 -0.939273
v 0.411019 1.718330 -0.557545
v 0.651532 1.621637 -0.970113
v 0.781770 1.845283 -0.361952
v 1.036972 1.753620 -0.766771
v 0.630740 1.576537 -0.391617
v 0.879959 1.474226 -0.797611
v 0.666296 2.057613 -0.771268
v 0.428723 1.634868 -0.817931
v 0.774350 1.411822 -0.556923
v 1.011924 1.834568 -0.510259
v 0.720134 1.446810 -0.597865
v 0.482604 1.600096 -0.777241
v 0.961635 1.867021 -0.548236
v 0.737791 2.011476 -0.717277
v 0.618976 1.973409 -0.780563
v 0.463523 1.696792 -0.811096
v 0.972412 1.764259 -0.518020
v 0.809426 1.474238 -0.550033
vn -0.0000 0.5672 -0.8236
vn -0.0000 0.1240 -0.9923
vn -0.0000 -0.2325 -0.9726
vn -0.0000 -0.5496 -0.8354
vn -0.0000 -0.2427 -0.9701
vn 0.0771 -0.6973 -0.7126
vn -0.7629 -0.5475 0.3440
vn 0.9740 0.2264 -0.0000
vn 0.9992 0.0409 -0.0000
vn 0.8324 -0.5542 -0.0000
vn 0.8756 0.4830 -0.0000
vn 0.8925 -0.4511 -0.0000
vn 0.9782 -0.1428 -0.1507
vn -0.0129 -0.2650 0.9642
vn -0.0000 1.0000 -0.0000
vn -0.7809 0.6247 -0.0000
vn -0.0000 0.6247 0.7809
vn 0.7809 0.6247 -0.0000
vn -0.0000 0.6247 -0.7809
vn -0.5085 0.3715 -0.7768
vn -0.2984 -0.8839 -0.3601
vn 0.8353 -0.4957 0.2380
vn 0.6252 0.7597 -0.1787
vn -0.5088 0.1933 0.8389
vn 0.5088 -0.1933 -0.8389
vn 0.2841 0.8815 0.3771
vn 0.4925 -0.3640 0.7905
vn -0.6323 -0.7492 0.1971
vn -0.8408 0.4964 -0.2163
vt 0.005859 0.953125
vt 0.006836 0.953125
vt 0.006836 0.958984
vt 0.005859 0.958984
vt 0.007812 0.958984
vt 0.006836 0.958984
vt 0.006836 0.953125
vt 0.007812 0.953125
vt 0.000000 0.958008
vt 0.005859 0.958008
vt 0.000000 0.958984
vt 0.000000 0.953125
vt 0.069336 0.971680
vt 0.071278 0.973622
vt 0.069336 0.973633
vt 0.069336 0.978516
vt 0.071278 0.976573
vt 0.071288 0.978516
vt 0.076172 0.978516
vt 0.074230 0.976573
vt 0.076172 0.976562
vt 0.076172 0.971680
vt 0.074230 0.973622
vt 0.074219 0.971680
vt 0.003228 0.953401
vt 0.004629 0.953401
vt 0.004629 0.954802
vt 0.003228 0.954802
vt 0.000977 0.953125
vt 0.000977 0.958984
vt 0.004883 0.958984
vt 0.004883 0.953125
vt 0.074213 0.978516
vt 0.071289 0.971680
vt 0.069336 0.976562
vt 0.076172 0.973633
s 0
usemtl Material
f 1/1/1 8/2/1 4/3/1 3/4/1
f 5/1/2 12/2/2 8/3/2 1/4/2
f 15/1/3 10/2/3 12/3/3 5/4/3
f 19/1/4 20/2/4 10/3/4 15/4/4
f 23/1/5 18/2/5 20/3/5 19/4/5
f 27/1/6 28/2/6 18/3/6 23/4/6
f 25/5/7 26/6/7 28/7/7 27/8/7
f 24/1/8 16/2/8 21/3/8 22/4/8
f 17/1/9 13/2/9 16/3/9 24/4/9
f 11/1/10 14/2/10 13/3/10 17/4/10
f 7/1/11 6/2/11 14/3/11 11/4/11
f 2/1/12 9/2/12 6/3/12 7/4/12
f 31/1/13 32/2/13 9/3/13 2/4/13
f 29/5/14 30/6/14 32/7/14 31/8/14
f 38/9/15 39/10/15 40/4/15 37/11/15
f 38/4/16 37/11/16 35/12/16 33/1/16
f 39/4/17 38/11/17 33/12/17 34/1/17
f 40/4/18 39/11/18 34/12/18 36/1/18
f 37/4/19 40/11/19 36/12/19 35/1/19
f 49/13/20 42/14/20 57/15/20
f 50/16/21 44/17/21 54/18/21
f 51/19/22 48/20/22 60/21/22
f 52/22/23 46/23/23 55/24/23
f 43/25/24 47/26/24 45/27/24 41/28/24
f 48/20/25 44/17/25 42/14/25 46/23/25
f 45/29/26 52/11/26 55/30/26 56/31/26 49/4/26 41/32/26
f 47/29/27 51/11/27 60/30/27 59/31/27 52/4/27 45/32/27
f 43/29/28 50/11/28 54/30/28 53/31/28 51/4/28 47/32/28
f 41/29/29 49/11/29 57/30/29 58/31/29 50/4/29 43/32/29
f 53/33/21 48/20/21 51/19/21
f 54/18/21 44/17/21 48/20/21 53/33/21
f 55/24/23 46/23/23 42/14/23 56/34/23
f 56/34/23 42/14/23 49/13/23
f 57/15/20 42/14/20 58/35/20
f 58/35/20 44/17/20 50/16/20
f 44/17/20 58/35/20 42/14/20
f 59/36/22 46/23/22 52/22/22
f 60/21/22 48/20/22 46/23/22 59/36/22
