# Blender 4.0.2
# www.blender.org
mtllib Скала_003.mtl
o Скала.003
v -0.500000 0.000000 0.611517
v -0.048153 1.797566 -0.028712
v -0.500000 0.000000 -0.768206
v 0.138036 1.654781 -0.403639
v 0.500000 0.000000 0.611517
v 0.279551 1.948272 0.084857
v 0.500000 0.000000 -0.597764
v 0.439581 1.821929 -0.233758
v 0.668514 2.114260 -0.144194
v 0.908298 0.000000 -0.399146
v 0.908298 0.000000 0.298632
v 0.668514 2.292913 0.048756
v -1.012180 0.000000 -0.405797
v -1.012180 0.000000 0.282412
v -0.172617 1.650042 -0.136983
v -0.066994 1.583650 -0.364357
vn -0.0000 -1.0000 -0.0000
vn 0.1661 0.1507 -0.9745
vn -0.1281 0.2453 0.9610
vn -0.0000 0.3355 0.9420
vn -0.2354 0.8571 -0.4581
vn 0.9936 0.1127 -0.0000
vn -0.5573 0.6093 -0.5641
vn 0.4321 0.1561 -0.8882
vn -0.8913 0.4535 -0.0000
vn -0.2812 0.3086 -0.9087
vn -0.4856 0.4392 0.7558
vn -0.4944 0.7454 -0.4473
vn 0.3986 0.1924 -0.8967
vn 0.6015 0.1484 0.7849
vn -0.4006 0.1966 0.8949
vn -0.2299 0.8660 -0.4440
vn 0.9917 0.0942 -0.0872
vn -0.5873 0.6068 -0.5356
vn 0.1269 0.1984 -0.9719
vn -0.7472 0.4586 -0.4810
vn -0.5424 0.3438 -0.7666
vn -0.8184 0.3641 0.4447
vn -0.3681 0.7933 -0.4849
vt 0.121094 0.910156
vt 0.121094 0.909180
vt 0.140625 0.937500
vt 0.109375 0.906250
vt 0.140625 0.906250
vt 0.109375 0.937500
vt 0.122070 0.909180
vt 0.124531 0.928175
vt 0.131329 0.934973
vt 0.124531 0.934973
vt 0.122070 0.910156
vt 0.131329 0.928175
s 0
usemtl Material
f 1/1/1 13/2/1 3/2/1
f 4/3/2 7/4/2 3/5/2
f 5/4/3 12/3/3 6/6/3
f 5/5/4 2/6/4 1/4/4
f 7/7/1 1/1/1 3/2/1
f 8/8/5 2/9/5 6/10/5
f 9/3/6 11/4/6 10/5/6
f 7/7/1 11/11/1 5/11/1
f 8/8/7 12/9/7 9/10/7
f 7/5/8 9/6/8 10/4/8
f 15/3/9 13/4/9 14/5/9
f 3/4/10 16/3/10 4/6/10
f 1/5/11 15/6/11 14/4/11
f 2/8/12 16/9/12 15/10/12
f 1/1/1 14/1/1 13/2/1
f 4/3/13 8/6/13 7/4/13
f 5/4/14 11/5/14 12/3/14
f 5/5/15 6/3/15 2/6/15
f 7/7/1 5/11/1 1/1/1
f 8/8/16 4/12/16 2/9/16
f 9/3/17 12/6/17 11/4/17
f 7/7/1 10/7/1 11/11/1
f 8/8/18 6/12/18 12/9/18
f 7/5/19 8/3/19 9/6/19
f 15/3/20 16/6/20 13/4/20
f 3/4/21 13/5/21 16/3/21
f 1/5/22 2/3/22 15/6/22
f 2/8/23 4/12/23 16/9/23
