# Blender 4.0.2
# www.blender.org
mtllib Скопление_травы.mtl
o Скопление_травы
v 0.097094 -0.011496 0.221475
v 0.262740 -0.011496 0.149512
v 0.097094 0.090093 0.221475
v 0.262740 0.090093 0.149512
v -0.288021 -0.003937 0.025394
v -0.128888 -0.003937 0.025394
v -0.288021 0.085576 0.025394
v -0.128888 0.085576 0.025394
v 0.124080 -0.017706 -0.146851
v 0.174656 -0.017706 -0.110132
v 0.124080 0.154169 -0.146851
v 0.174656 0.154169 -0.110132
v -0.243777 -0.017842 -0.207613
v -0.157567 -0.017842 -0.250668
v -0.243777 0.247158 -0.207613
v -0.157567 0.247158 -0.250668
v 0.140914 -0.001427 -0.190498
v 0.293061 -0.001427 -0.001706
v 0.140914 0.134962 -0.190498
v 0.293061 0.134962 -0.001706
v -0.219619 -0.003177 0.154771
v -0.085858 -0.003177 0.224882
v -0.219619 0.081773 0.154771
v -0.085858 0.081773 0.224882
v -0.051741 -0.011496 0.149168
v 0.064833 -0.011496 0.187138
v -0.051741 0.057468 0.149168
v 0.064833 0.057468 0.187138
v -0.123745 -0.003937 -0.102550
v 0.028961 -0.003937 -0.147320
v -0.123745 0.085576 -0.102550
v 0.028961 0.085576 -0.147320
v -0.071297 -0.024221 -0.020988
v 0.050707 -0.024221 -0.022626
v -0.071297 0.505779 -0.020988
v 0.050707 0.505779 -0.022626
v 0.059140 -0.056622 0.005340
v 0.181144 -0.056622 0.003702
v 0.059140 0.473379 0.005340
v 0.181144 0.473379 0.003702
v -0.136681 -0.093440 0.071288
v -0.258685 -0.093440 0.069649
v -0.136681 0.436560 0.071288
v -0.258685 0.436560 0.069649
vn -0.3985 -0.0000 -0.9172
vn -0.0000 -0.0000 -1.0000
vn 0.5875 -0.0000 -0.8092
vn -0.4468 -0.0000 -0.8946
vn 0.7786 -0.0000 -0.6275
vn 0.4642 -0.0000 -0.8857
vn 0.3097 -0.0000 -0.9508
vn -0.2813 -0.0000 -0.9596
vn -0.0134 -0.0000 -0.9999
vn -0.0134 -0.0000 0.9999
vt 0.015625 0.994141
vt 0.015625 0.997070
vt 0.021484 0.997070
vt 0.021484 0.994141
vt 0.015625 0.992188
vt 0.019531 0.994141
vt 0.019531 0.992188
vt 0.019531 0.988281
vt 0.021484 0.988281
s 0
usemtl Material
f 1/1/1 3/2/1 4/3/1 2/4/1
f 5/5/2 7/1/2 8/6/2 6/7/2
f 9/8/3 11/6/3 12/4/3 10/9/3
f 13/8/4 15/6/4 16/4/4 14/9/4
f 17/1/5 19/2/5 20/3/5 18/4/5
f 21/1/6 23/2/6 24/3/6 22/4/6
f 25/5/7 27/1/7 28/6/7 26/7/7
f 29/5/8 31/1/8 32/6/8 30/7/8
f 33/8/9 35/6/9 36/4/9 34/9/9
f 37/8/9 39/6/9 40/4/9 38/9/9
f 41/8/10 43/6/10 44/4/10 42/9/10
