# Blender 4.0.2
# www.blender.org
mtllib Светящийся_одуванчик_001.mtl
o Светящийся_одуванчик.001
v 0.449743 2.409576 -1.747504
v 0.471809 2.251300 -1.728447
v 0.449743 2.409576 -1.659922
v 0.471809 2.251300 -1.678979
v 1.138859 1.431481 -0.297271
v 1.116793 1.589758 -0.278214
v 1.138859 1.431481 -0.346739
v 1.116793 1.589758 -0.365796
v 1.188318 1.432420 -0.297271
v 1.204360 1.591420 -0.278214
v 1.188318 1.432420 -0.346739
v 1.204360 1.591420 -0.365796
v 1.109493 1.510272 -0.269406
v 1.109493 1.510272 -0.374603
v 1.214672 1.512268 -0.374603
v 1.214672 1.512268 -0.269406
v -0.289598 0.000000 0.289598
v -0.253547 1.000000 0.253547
v -0.289598 0.000000 -0.289598
v -0.253547 1.000000 -0.253547
v 0.289598 0.000000 0.289598
v 0.253547 1.000000 0.253547
v 0.289598 0.000000 -0.289598
v 0.253547 1.000000 -0.253547
v -0.193794 2.000000 0.193794
v -0.193794 2.000000 -0.193794
v 0.193794 2.000000 -0.193794
v 0.193794 2.000000 0.193794
v -0.146663 3.000000 0.146663
v -0.146663 3.000000 -0.146663
v 0.146663 3.000000 -0.146663
v 0.146663 3.000000 0.146663
v -0.115508 4.000000 0.115508
v -0.115508 4.000000 -0.115508
v 0.115508 4.000000 -0.115508
v 0.115508 4.000000 0.115508
v 0.122330 1.765505 0.210033
v 0.430384 2.332380 0.280565
v -0.187345 1.959869 0.124811
v 0.159259 2.502548 0.205952
v 0.186474 1.770278 -0.122852
v 0.520023 2.336558 -0.035632
v -0.084961 1.964642 -0.153859
v 0.248898 2.506727 -0.110245
v 0.805262 2.907403 0.225990
v 0.598033 3.037468 0.168961
v 0.666547 3.040663 -0.072718
v 0.873776 2.910598 -0.015689
v 0.999196 3.478088 0.432120
v 0.842365 3.576520 0.388961
v 0.894216 3.578938 0.206059
v 1.051047 3.480505 0.249218
v 1.166209 4.061027 0.427498
v 1.022961 4.088338 0.393507
v 1.060311 4.104958 0.249458
v 1.203559 4.077647 0.283449
v -1.775800 2.367627 1.775800
v 1.775800 2.367627 1.775800
v -1.775800 2.367627 -1.775800
v 1.775800 2.367627 -1.775800
v -1.775800 2.778719 -0.591933
v -1.775800 2.778719 0.591933
v -0.591933 2.778719 1.775800
v 0.591933 2.778719 1.775800
v 1.775800 2.778719 0.591933
v 1.775800 2.778719 -0.591933
v 0.591933 2.778719 -1.775800
v -0.591933 2.778719 -1.775800
v -0.411810 3.915826 0.411810
v -0.998904 3.456242 0.998904
v -0.411810 3.915826 -0.411810
v -0.998904 3.456242 -0.998904
v 0.411810 3.915826 0.411810
v 0.998904 3.456242 0.998904
v 0.998904 3.456242 -0.998904
v 0.411810 3.915826 -0.411810
v -1.517526 2.597014 2.790199
v 2.790199 2.597014 1.517526
v -2.790199 2.597014 -1.517525
v 1.517526 2.597014 -2.790199
v -2.365974 3.116932 -0.081617
v -1.941750 3.116932 1.354291
v -0.081617 3.116932 2.365975
v 1.354291 3.116932 1.941750
v 2.365974 3.116932 0.081618
v 1.941750 3.116932 -1.354290
v 0.081618 3.116932 -2.365974
v -1.354291 3.116932 -1.941750
v -0.351916 4.555058 0.647051
v -0.853622 3.973811 1.569513
v -0.647050 4.555058 -0.351916
v -1.569513 3.973811 -0.853622
v 0.647051 4.555058 0.351916
v 1.569513 3.973811 0.853623
v 0.853623 3.973811 -1.569513
v 0.351916 4.555058 -0.647050
v 0.384709 3.676769 1.710213
v 2.290612 3.243619 0.887488
v -0.351885 4.118425 -0.228686
v 1.554018 3.685274 -1.051411
v -0.040680 4.205986 0.446144
v 0.204852 4.058768 1.092443
v 1.085684 3.767166 1.464502
v 1.720985 3.622783 1.190260
v 2.110754 3.625618 0.269719
v 1.865223 3.772836 -0.376581
v 0.984391 4.064438 -0.748639
v 0.349090 4.208822 -0.474398
v 1.081113 4.564234 0.757059
v 0.814401 4.300353 1.181672
v 0.910296 4.666655 0.307426
v 0.400060 4.548789 0.091022
v 1.523094 4.463786 0.566269
v 1.886489 4.056702 0.718881
v 1.472148 4.305137 -0.371768
v 1.352277 4.566206 0.116635
v -2.189988 2.752949 0.497420
v -0.363302 3.441757 -0.330663
v -2.450549 1.453640 -1.158136
v -0.623863 2.142448 -1.986219
v -2.484667 2.063588 -0.726036
v -2.397813 2.496691 -0.174184
v -1.702065 3.159396 0.101640
v -1.093169 3.388999 -0.174388
v -0.571127 3.185499 -1.002267
v -0.657981 2.752396 -1.554120
v -1.353730 2.089691 -1.829944
v -1.962625 1.860088 -1.553916
v -2.044106 3.184497 -0.907414
v -2.167751 3.087709 -0.362981
v -2.104530 2.883185 -1.291340
v -2.314319 2.356836 -1.294246
v -1.620495 3.344233 -1.099448
v -1.140223 3.475171 -0.828785
v -1.286791 2.744297 -1.760051
v -1.680919 3.042921 -1.483373
v 1.125000 1.575187 -0.312500
v 1.125000 2.200187 -0.312500
v 1.187500 1.575187 -0.312500
v 1.187500 2.200187 -0.312500
v 1.125000 2.200187 -0.312500
v 1.125000 2.825187 -0.312500
v 1.187500 2.200187 -0.312500
v 1.187500 2.825187 -0.312500
v 1.125000 2.825187 -0.312500
v 1.125000 3.450187 -0.312500
v 1.187500 2.825187 -0.312500
v 1.187500 3.450187 -0.312500
v 0.521268 2.252239 -1.678979
v 0.537310 2.411238 -1.659922
v 0.521268 2.252239 -1.728447
v 0.537310 2.411238 -1.747504
v 0.442443 2.330090 -1.651114
v 0.442443 2.330090 -1.756312
v 0.547622 2.332087 -1.756312
v 0.547622 2.332087 -1.651114
v 0.457950 2.395005 -1.694209
v 0.457950 3.020005 -1.694209
v 0.520450 2.395005 -1.694209
v 0.520450 3.020005 -1.694209
v 0.457950 3.020005 -1.694209
v 0.457950 3.645005 -1.694209
v 0.520450 3.020005 -1.694209
v 0.520450 3.645005 -1.694209
v -0.828351 1.352230 0.422429
v -0.806286 1.193953 0.441486
v -0.828351 1.352230 0.510011
v -0.806286 1.193953 0.490954
v -0.756827 1.194892 0.490954
v -0.740785 1.353892 0.510011
v -0.756827 1.194892 0.441486
v -0.740785 1.353892 0.422429
v -0.835652 1.272743 0.518819
v -0.835652 1.272743 0.413622
v -0.730473 1.274740 0.413622
v -0.730473 1.274740 0.518819
v -0.820145 1.337659 0.475725
v -0.820145 1.962659 0.475725
v -0.757645 1.337659 0.475725
v -0.757645 1.962659 0.475725
v -0.820145 1.962659 0.475725
v -0.820145 2.587659 0.475725
v -0.757645 1.962659 0.475725
v -0.757645 2.587659 0.475725
v -0.820145 2.587659 0.475725
v -0.820145 3.212659 0.475725
v -0.757645 2.587659 0.475725
v -0.757645 3.212659 0.475725
v -0.557412 1.017436 -1.209085
v -0.535347 0.859159 -1.190029
v -0.557412 1.017436 -1.121503
v -0.535347 0.859159 -1.140561
v -0.485887 0.860099 -1.140561
v -0.469846 1.019098 -1.121503
v -0.485887 0.860099 -1.190029
v -0.469846 1.019098 -1.209085
v -0.564712 0.937950 -1.112696
v -0.564712 0.937950 -1.217893
v -0.459534 0.939946 -1.217893
v -0.459534 0.939946 -1.112696
v -0.549205 1.002865 -1.155790
v -0.549205 1.627865 -1.155790
v -0.486705 1.002865 -1.155790
v -0.486705 1.627865 -1.155790
v -0.549205 1.627865 -1.155790
v -0.549205 2.252865 -1.155790
v -0.486705 1.627865 -1.155790
v -0.486705 2.252865 -1.155790
v -0.549205 2.252865 -1.155790
v -0.549205 2.877865 -1.155790
v -0.486705 2.252865 -1.155790
v -0.486705 2.877865 -1.155790
vn -0.9958 0.0915 -0.0000
vn -0.0021 0.1103 -0.9939
vn 0.9916 0.1292 -0.0000
vn -0.0021 0.1103 0.9939
vn 0.0190 -0.9998 -0.0000
vn -0.0190 0.9998 -0.0000
vn 0.0063 -0.3313 0.9435
vn 0.9496 -0.3134 -0.0000
vn 0.0063 -0.3313 -0.9435
vn -0.9370 -0.3492 -0.0000
vn -0.9994 0.0360 -0.0000
vn -0.0000 0.0360 -0.9994
vn 0.9994 0.0360 -0.0000
vn -0.0000 0.0360 0.9994
vn 0.9982 0.0596 -0.0000
vn -0.9989 0.0471 -0.0000
vn -0.9982 0.0596 -0.0000
vn -0.0000 0.0596 0.9982
vn -0.0000 0.0596 -0.9982
vn -0.0000 0.0311 0.9995
vn -0.0000 0.0471 0.9989
vn -0.0000 0.0471 -0.9989
vn 0.9989 0.0471 -0.0000
vn -0.0000 1.0000 -0.0000
vn -0.0000 0.0311 -0.9995
vn 0.9995 0.0311 -0.0000
vn -0.9995 0.0311 -0.0000
vn -0.2547 0.0181 0.9668
vn -0.8064 0.5349 -0.2523
vn 0.1915 0.0006 -0.9815
vn 0.8422 -0.5037 0.1926
vn 0.2085 -0.0947 -0.9734
vn -0.3745 -0.1998 0.9054
vn -0.1485 0.1890 0.9707
vn 0.8255 -0.5166 0.2272
vn -0.7632 0.6116 -0.2083
vn 0.9355 -0.2593 0.2401
vn 0.8871 -0.3904 0.2463
vn -0.8462 0.4789 -0.2336
vn 0.4120 0.2756 -0.8685
vn 0.1503 0.9769 0.1517
vn -0.9193 0.3178 -0.2323
vn 0.2477 -0.0033 -0.9688
vn -0.2207 0.0702 0.9728
vn 0.2325 0.6694 0.7056
vn -0.7056 0.6694 -0.2325
vn -0.7056 0.6694 0.2325
vn -0.6573 0.7537 -0.0000
vn -0.0000 0.7537 -0.6573
vn 0.6573 0.7537 -0.0000
vn 0.2325 0.6694 -0.7056
vn -0.6164 0.7874 -0.0000
vn 0.6164 0.7874 -0.0000
vn -0.0000 0.7874 0.6164
vn -0.0000 0.7874 -0.6164
vn -0.0000 0.7537 0.6573
vn 0.7056 0.6694 0.2325
vn -0.2325 0.6694 -0.7056
vn -0.2325 0.6694 0.7056
vn 0.7056 0.6694 -0.2325
vn 0.4228 0.6694 0.6108
vn -0.7425 0.6694 -0.0230
vn -0.6108 0.6694 0.4228
vn -0.6303 0.7537 0.1862
vn -0.1862 0.7537 -0.6303
vn 0.6303 0.7537 -0.1862
vn 0.0230 0.6694 -0.7425
vn -0.5911 0.7874 0.1746
vn 0.5911 0.7874 -0.1746
vn 0.1746 0.7874 0.5911
vn -0.1746 0.7874 -0.5911
vn 0.1862 0.7537 0.6303
vn 0.7425 0.6694 0.0230
vn -0.4228 0.6694 -0.6108
vn -0.0230 0.6694 0.7425
vn 0.6108 0.6694 -0.4228
vn 0.6331 0.4459 0.6327
vn -0.5358 0.8328 0.1390
vn 0.2676 0.9565 0.1162
vn -0.3743 0.7360 0.5641
vn -0.3891 0.8551 0.3426
vn -0.0267 0.8578 -0.5133
vn 0.7924 0.5866 -0.1674
vn 0.1430 0.7398 -0.6575
vn -0.3433 0.8791 0.3307
vn 0.7647 0.6273 -0.1476
vn 0.4248 0.6248 0.6551
vn -0.0034 0.8816 -0.4721
vn 0.4299 0.5840 0.6885
vn 0.8940 0.4478 0.0166
vn -0.2749 0.8347 -0.4771
vn 0.2153 0.5408 0.8131
vn 0.7325 0.5446 -0.4085
vn -0.0430 0.9901 0.1335
vn -0.9663 0.1107 -0.2326
vn -0.4928 0.7205 -0.4879
vn -0.9091 0.3956 0.1304
vn -0.9376 0.3295 -0.1110
vn -0.4522 0.1403 -0.8808
vn 0.1947 0.7565 -0.6243
vn -0.2164 0.1255 -0.9682
vn -0.9191 0.3671 -0.1435
vn 0.1429 0.7675 -0.6249
vn -0.3123 0.9450 0.0971
vn -0.4638 0.1896 -0.8654
vn -0.2907 0.9457 0.1454
vn 0.3064 0.8539 -0.4206
vn -0.6169 -0.0255 -0.7867
vn -0.4435 0.8391 0.3150
vn 0.2493 0.5691 -0.7836
vn -0.0000 -0.0000 -1.0000
vt 0.006836 0.966797
vt 0.007812 0.968750
vt 0.005859 0.968750
vt 0.007812 0.964844
vt 0.007812 0.965820
vt 0.005859 0.965820
vt 0.005859 0.964844
vt 0.007812 0.967773
vt 0.005859 0.967773
vt 0.015625 0.937500
vt 0.015625 0.953125
vt 0.000000 0.953125
vt 0.000000 0.937500
vt 0.000000 0.937500
vt 0.046875 0.890625
vt 0.036133 0.901367
vt 0.031250 0.890625
vt 0.009766 0.927734
vt 0.000000 0.921875
vt 0.028320 0.909180
vt 0.017578 0.919922
vt 0.017578 0.909180
vt 0.000000 0.890625
vt 0.009766 0.901367
vt 0.000000 0.906250
vt 0.036133 0.927734
vt 0.046875 0.906250
vt 0.046875 0.937500
vt 0.031250 0.937500
vt 0.028320 0.919922
vt 0.015625 0.890625
vt 0.046875 0.921875
vt 0.011719 0.958984
vt 0.011719 0.968750
vt 0.009766 0.968750
vt 0.009766 0.958984
s 0
usemtl Material
f 153/1/1 3/2/1 1/3/1 154/1/1
f 13/1/1 6/2/1 8/3/1 14/1/1
f 14/1/2 8/2/2 12/3/2 15/1/2
f 15/1/3 12/2/3 10/3/3 16/1/3
f 16/1/4 10/2/4 6/3/4 13/1/4
f 7/4/5 11/5/5 9/6/5 5/7/5
f 12/8/6 8/2/6 6/3/6 10/9/6
f 9/4/7 16/1/7 13/1/7 5/7/7
f 11/4/8 15/1/8 16/1/8 9/7/8
f 7/4/9 14/1/9 15/1/9 11/7/9
f 5/4/10 13/1/10 14/1/10 7/7/10
f 17/10/11 18/11/11 20/12/11 19/13/11
f 19/10/12 20/11/12 24/12/12 23/13/12
f 23/10/13 24/11/13 22/12/13 21/13/13
f 21/10/14 22/11/14 18/12/14 17/13/14
f 22/14/15 24/10/15 27/11/15 28/12/15
f 26/14/16 25/10/16 29/11/16 30/12/16
f 20/14/17 18/10/17 25/11/17 26/12/17
f 18/14/18 22/10/18 28/11/18 25/12/18
f 24/14/19 20/10/19 26/11/19 27/12/19
f 29/14/20 32/10/20 36/11/20 33/12/20
f 25/14/21 28/10/21 32/11/21 29/12/21
f 27/14/22 26/10/22 30/11/22 31/12/22
f 28/14/23 27/10/23 31/11/23 32/12/23
f 35/14/24 34/10/24 33/11/24 36/12/24
f 31/14/25 30/10/25 34/11/25 35/12/25
f 32/14/26 31/10/26 35/11/26 36/12/26
f 30/14/27 29/10/27 33/11/27 34/12/27
f 37/10/28 38/11/28 40/12/28 39/13/28
f 39/10/29 40/11/29 44/12/29 43/13/29
f 43/10/30 44/11/30 42/12/30 41/13/30
f 41/10/31 42/11/31 38/12/31 37/13/31
f 42/14/32 44/10/32 47/11/32 48/12/32
f 46/14/33 45/10/33 49/11/33 50/12/33
f 40/14/34 38/10/34 45/11/34 46/12/34
f 38/14/35 42/10/35 48/11/35 45/12/35
f 44/14/36 40/10/36 46/11/36 47/12/36
f 49/14/37 52/10/37 56/11/37 53/12/37
f 45/14/38 48/10/38 52/11/38 49/12/38
f 47/14/39 46/10/39 50/11/39 51/12/39
f 48/14/40 47/10/40 51/11/40 52/12/40
f 55/14/41 54/10/41 53/11/41 56/12/41
f 51/14/42 50/10/42 54/11/42 55/12/42
f 52/14/43 51/10/43 55/11/43 56/12/43
f 50/14/44 49/10/44 53/11/44 54/12/44
f 58/15/45 74/16/45 64/17/45
f 72/18/46 59/14/46 61/19/46
f 73/20/24 71/21/24 69/22/24
f 57/23/47 70/24/47 62/25/47
f 70/24/48 61/19/48 62/25/48
f 75/26/49 68/10/49 72/18/49
f 65/27/50 75/26/50 74/16/50
f 75/26/51 60/28/51 67/29/51
f 69/22/52 72/18/52 70/24/52
f 75/26/53 73/20/53 74/16/53
f 73/20/54 70/24/54 74/16/54
f 72/18/55 76/30/55 75/26/55
f 64/17/56 70/24/56 63/31/56
f 58/15/57 65/27/57 74/16/57
f 72/18/58 68/10/58 59/14/58
f 73/20/24 76/30/24 71/21/24
f 57/23/59 63/31/59 70/24/59
f 70/24/48 72/18/48 61/19/48
f 75/26/49 67/29/49 68/10/49
f 65/27/50 66/32/50 75/26/50
f 75/26/60 66/32/60 60/28/60
f 69/22/52 71/21/52 72/18/52
f 75/26/53 76/30/53 73/20/53
f 73/20/54 69/22/54 70/24/54
f 72/18/55 71/21/55 76/30/55
f 64/17/56 74/16/56 70/24/56
f 78/15/61 94/16/61 84/17/61
f 92/18/62 79/14/62 81/19/62
f 93/20/24 91/21/24 89/22/24
f 77/23/63 90/24/63 82/25/63
f 90/24/64 81/19/64 82/25/64
f 95/26/65 88/10/65 92/18/65
f 85/27/66 95/26/66 94/16/66
f 95/26/67 80/28/67 87/29/67
f 89/22/68 92/18/68 90/24/68
f 95/26/69 93/20/69 94/16/69
f 93/20/70 90/24/70 94/16/70
f 92/18/71 96/30/71 95/26/71
f 84/17/72 90/24/72 83/31/72
f 78/15/73 85/27/73 94/16/73
f 92/18/74 88/10/74 79/14/74
f 93/20/24 96/30/24 91/21/24
f 77/23/75 83/31/75 90/24/75
f 90/24/64 92/18/64 81/19/64
f 95/26/65 87/29/65 88/10/65
f 85/27/66 86/32/66 95/26/66
f 95/26/76 86/32/76 80/28/76
f 89/22/68 91/21/68 92/18/68
f 95/26/69 96/30/69 93/20/69
f 93/20/70 89/22/70 90/24/70
f 92/18/71 91/21/71 96/30/71
f 84/17/72 94/16/72 90/24/72
f 98/15/77 114/16/77 104/17/77
f 112/18/78 99/14/78 101/19/78
f 113/20/79 111/21/79 109/22/79
f 97/23/80 110/24/80 102/25/80
f 110/24/81 101/19/81 102/25/81
f 115/26/82 108/10/82 112/18/82
f 105/27/83 115/26/83 114/16/83
f 115/26/84 100/28/84 107/29/84
f 109/22/85 112/18/85 110/24/85
f 115/26/86 113/20/86 114/16/86
f 113/20/87 110/24/87 114/16/87
f 112/18/88 116/30/88 115/26/88
f 104/17/89 110/24/89 103/31/89
f 98/15/90 105/27/90 114/16/90
f 112/18/91 108/10/91 99/14/91
f 113/20/79 116/30/79 111/21/79
f 97/23/92 103/31/92 110/24/92
f 110/24/81 112/18/81 101/19/81
f 115/26/82 107/29/82 108/10/82
f 105/27/83 106/32/83 115/26/83
f 115/26/93 106/32/93 100/28/93
f 109/22/85 111/21/85 112/18/85
f 115/26/86 116/30/86 113/20/86
f 113/20/87 109/22/87 110/24/87
f 112/18/88 111/21/88 116/30/88
f 104/17/89 114/16/89 110/24/89
f 118/15/94 134/16/94 124/17/94
f 132/18/95 119/14/95 121/19/95
f 133/20/96 131/21/96 129/22/96
f 117/23/97 130/24/97 122/25/97
f 130/24/98 121/19/98 122/25/98
f 135/26/99 128/10/99 132/18/99
f 125/27/100 135/26/100 134/16/100
f 135/26/101 120/28/101 127/29/101
f 129/22/102 132/18/102 130/24/102
f 135/26/103 133/20/103 134/16/103
f 133/20/104 130/24/104 134/16/104
f 132/18/105 136/30/105 135/26/105
f 124/17/106 130/24/106 123/31/106
f 118/15/107 125/27/107 134/16/107
f 132/18/108 128/10/108 119/14/108
f 133/20/96 136/30/96 131/21/96
f 117/23/109 123/31/109 130/24/109
f 130/24/98 132/18/98 121/19/98
f 135/26/99 127/29/99 128/10/99
f 125/27/100 126/32/100 135/26/100
f 135/26/110 126/32/110 120/28/110
f 129/22/102 131/21/102 132/18/102
f 135/26/103 136/30/103 133/20/103
f 133/20/104 129/22/104 130/24/104
f 132/18/105 131/21/105 136/30/105
f 124/17/106 134/16/106 130/24/106
f 137/33/111 138/34/111 140/35/111 139/36/111
f 141/33/111 142/34/111 144/35/111 143/36/111
f 145/33/111 146/34/111 148/35/111 147/36/111
f 154/1/2 1/2/2 152/3/2 155/1/2
f 155/1/3 152/2/3 150/3/3 156/1/3
f 156/1/4 150/2/4 3/3/4 153/1/4
f 2/4/5 151/5/5 149/6/5 4/7/5
f 152/8/6 1/2/6 3/3/6 150/9/6
f 149/4/7 156/1/7 153/1/7 4/7/7
f 151/4/8 155/1/8 156/1/8 149/7/8
f 2/4/9 154/1/9 155/1/9 151/7/9
f 4/4/10 153/1/10 154/1/10 2/7/10
f 157/33/111 158/34/111 160/35/111 159/36/111
f 161/33/111 162/34/111 164/35/111 163/36/111
f 173/1/1 167/2/1 165/3/1 174/1/1
f 174/1/2 165/2/2 172/3/2 175/1/2
f 175/1/3 172/2/3 170/3/3 176/1/3
f 176/1/4 170/2/4 167/3/4 173/1/4
f 166/4/5 171/5/5 169/6/5 168/7/5
f 172/8/6 165/2/6 167/3/6 170/9/6
f 169/4/7 176/1/7 173/1/7 168/7/7
f 171/4/8 175/1/8 176/1/8 169/7/8
f 166/4/9 174/1/9 175/1/9 171/7/9
f 168/4/10 173/1/10 174/1/10 166/7/10
f 177/33/111 178/34/111 180/35/111 179/36/111
f 181/33/111 182/34/111 184/35/111 183/36/111
f 185/33/111 186/34/111 188/35/111 187/36/111
f 197/1/1 191/2/1 189/3/1 198/1/1
f 198/1/2 189/2/2 196/3/2 199/1/2
f 199/1/3 196/2/3 194/3/3 200/1/3
f 200/1/4 194/2/4 191/3/4 197/1/4
f 190/4/5 195/5/5 193/6/5 192/7/5
f 196/8/6 189/2/6 191/3/6 194/9/6
f 193/4/7 200/1/7 197/1/7 192/7/7
f 195/4/8 199/1/8 200/1/8 193/7/8
f 190/4/9 198/1/9 199/1/9 195/7/9
f 192/4/10 197/1/10 198/1/10 190/7/10
f 201/33/111 202/34/111 204/35/111 203/36/111
f 205/33/111 206/34/111 208/35/111 207/36/111
f 209/33/111 210/34/111 212/35/111 211/36/111
