# Blender 4.0.2
# www.blender.org
mtllib Светящийся_одуванчик_003.mtl
o Светящийся_одуванчик.003
v 1.800903 1.431481 -0.117242
v 1.795701 1.589758 -0.088554
v 1.769836 1.431481 -0.155737
v 1.740697 1.589758 -0.156710
v 1.839392 1.432420 -0.148304
v 1.863844 1.591420 -0.143548
v 1.808324 1.432420 -0.186799
v 1.808840 1.591420 -0.211704
v 1.795551 1.510272 -0.077115
v 1.729484 1.510272 -0.158978
v 1.811333 1.512268 -0.225034
v 1.877400 1.512268 -0.143171
v -0.438294 0.000000 0.438294
v 0.167136 0.838082 0.131665
v -0.438294 0.000000 -0.438294
v 0.167136 0.838082 -0.375428
v 0.438294 0.000000 0.438294
v 0.674230 0.838082 0.131665
v 0.438294 0.000000 -0.438294
v 0.674230 0.838082 -0.375428
v -0.417212 1.767977 0.344341
v -0.417212 1.767977 -0.088985
v 0.016113 1.767977 -0.088985
v 0.016113 1.767977 0.344341
v 0.047840 2.642813 0.602622
v 0.047840 2.642813 0.309296
v 0.341166 2.642813 0.309296
v 0.341166 2.642813 0.602622
v 0.737708 3.203602 0.723169
v 0.737708 3.203602 0.492154
v 0.832874 2.993099 0.492154
v 0.832874 2.993099 0.723169
v 0.781793 2.654351 -0.290384
v 2.166800 2.975380 -0.451114
v 0.234016 3.344029 0.896924
v 0.445149 3.344029 1.611564
v 3.247172 2.654351 1.050480
v 1.370921 3.344029 2.115070
v 2.085561 3.344029 1.903937
v 2.589067 3.344029 0.978165
v 2.377934 3.344029 0.263525
v 1.452162 3.344029 -0.239981
v 0.737522 3.344029 -0.028848
v 1.236396 4.363737 1.259576
v 0.986701 3.951602 1.718678
v 1.089510 4.363737 0.762399
v 1.344050 2.654351 1.612738
v 0.630408 3.951602 0.512704
v 1.733573 4.363737 1.112690
v -0.010895 1.979061 2.038996
v 2.550317 1.979061 1.282312
v -0.767578 1.979061 -0.522216
v 1.793633 1.979061 -1.278901
v -0.515351 2.419465 0.331521
v -0.263123 2.419465 1.185259
v 0.842843 2.419465 1.786768
v 1.696581 2.419465 1.534540
v 2.298090 2.419465 0.428575
v 2.045862 2.419465 -0.425163
v 0.939896 2.419465 -1.026672
v 0.086158 2.419465 -0.774444
v 0.682133 3.637649 0.764760
v 0.383837 3.145296 1.313222
v 0.506657 3.637649 0.170812
v -0.041805 3.145296 -0.127484
v 1.276082 3.637649 0.589284
v 1.824544 3.145296 0.887580
v 1.398902 3.145296 -0.553126
v 1.100606 3.637649 -0.004664
v 2.192675 3.951602 1.362385
v 1.836382 3.951602 0.156411
v 1.586687 4.363737 0.615513
v 0.656281 2.975380 2.326203
v 2.800200 2.975380 1.692804
v -0.363302 7.441757 -0.330663
v 0.022883 2.975380 0.182285
v 2.169956 3.886773 0.094186
v 2.391607 3.520928 -0.313351
v 2.707882 3.520928 0.757172
v 2.300345 3.886773 0.535522
v 1.321083 3.520928 0.002924
v 1.728620 3.886773 0.224574
v 1.637358 3.520928 1.073447
v 1.859009 3.886773 0.665910
v 1.416167 2.981595 -0.477803
v 2.050540 2.981595 -0.665222
v 2.872334 2.981595 -0.218268
v 3.059753 2.981595 0.416106
v 2.612798 2.981595 1.237899
v 1.978424 2.981595 1.425318
v 1.156631 2.981595 0.978364
v 0.969212 2.981595 0.343990
v 2.684914 2.654351 -0.852642
v 1.780554 1.575187 -0.120389
v 1.780554 2.200187 -0.120389
v 1.829191 1.575187 -0.159641
v 1.829191 2.200187 -0.159641
v 1.780554 2.200187 -0.120389
v 1.780554 2.825187 -0.120389
v 1.829191 2.200187 -0.159641
v 1.829191 2.825187 -0.159641
v 1.780554 2.825187 -0.120389
v 1.780554 3.450187 -0.120389
v 1.829191 2.825187 -0.159641
v 1.829191 3.450187 -0.159641
v 0.722038 1.352230 1.344203
v 0.751177 1.193953 1.345175
v 0.777042 1.352230 1.412358
v 0.782245 1.193953 1.383670
v 0.820733 1.194892 1.352608
v 0.845186 1.353892 1.357364
v 0.789666 1.194892 1.314113
v 0.790181 1.353892 1.289208
v 0.776893 1.272743 1.423796
v 0.710826 1.272743 1.341933
v 0.792674 1.274740 1.275878
v 0.858741 1.274740 1.357741
v 0.761896 1.337659 1.380523
v 0.761896 1.962659 1.380523
v 0.810532 1.337659 1.341271
v 0.810532 1.962659 1.341271
v 0.761896 1.962659 1.380523
v 0.761896 2.587659 1.380523
v 0.810532 1.962659 1.341271
v 0.810532 2.587659 1.341271
v 0.761896 2.587659 1.380523
v 0.761896 3.212659 1.380523
v 0.810532 2.587659 1.341271
v 0.810532 3.212659 1.341271
v 0.998150 0.828072 -0.095582
v 1.027289 0.669796 -0.094609
v 1.053154 0.828072 -0.027426
v 1.058357 0.669796 -0.056114
v 1.096845 0.670735 -0.087176
v 1.121297 0.829734 -0.082420
v 1.065778 0.670735 -0.125671
v 1.066293 0.829734 -0.150576
v 1.053005 0.748586 -0.015987
v 0.986938 0.748586 -0.097851
v 1.068786 0.750582 -0.163906
v 1.134853 0.750582 -0.082043
v 1.038007 0.813501 -0.059261
v 1.038007 1.438501 -0.059261
v 1.086644 0.813501 -0.098513
v 1.086644 1.438501 -0.098513
v 1.038007 1.438501 -0.059261
v 1.038007 2.063501 -0.059261
v 1.086644 1.438501 -0.098513
v 1.086644 2.063501 -0.098513
v 1.038007 2.063501 -0.059261
v 1.038007 2.688501 -0.059261
v 1.086644 2.063501 -0.098513
v 1.086644 2.688501 -0.098513
vn -0.7749 0.0915 0.6254
vn -0.6258 0.1103 -0.7721
vn 0.7717 0.1292 -0.6228
vn 0.6226 0.1103 0.7748
vn 0.0148 -0.9998 -0.0119
vn -0.0148 0.9998 0.0119
vn 0.5974 -0.3313 0.7303
vn 0.7390 -0.3134 -0.5964
vn -0.5877 -0.3313 -0.7382
vn -0.7292 -0.3492 0.5885
vn -0.8106 0.5856 -0.0000
vn -0.0000 0.0748 -0.9972
vn 0.9626 -0.2710 -0.0000
vn -0.0000 0.3436 0.9391
vn 0.8163 0.5777 -0.0000
vn -0.8830 0.4694 -0.0000
vn -0.8467 -0.5321 -0.0000
vn -0.0000 -0.2230 0.9748
vn -0.0000 0.2944 -0.9557
vn -0.0829 -0.1530 0.9847
vn -0.0000 -0.2832 0.9591
vn -0.0000 0.4143 -0.9101
vn 0.9374 -0.3483 -0.0000
vn 0.9112 0.4119 -0.0000
vn 0.1234 0.2277 -0.9659
vn 0.5802 -0.8145 -0.0000
vn -0.6308 0.7760 -0.0000
vn 0.4810 0.5346 0.6949
vn -0.2207 0.6270 -0.7471
vn 0.7471 0.6270 -0.2207
vn -0.7140 0.6676 0.2110
vn -0.2110 0.6676 -0.7140
vn 0.2207 0.6270 0.7471
vn -0.8447 0.5346 -0.0262
vn 0.6949 0.5346 -0.4810
vn 0.7140 0.6676 -0.2110
vn -0.4810 0.5346 -0.6949
vn -0.0262 0.5346 0.8447
vn 0.8447 0.5346 0.0262
vn -0.7471 0.6270 0.2207
vn 0.2110 0.6676 0.7140
vn -0.6949 0.5346 0.4810
vn 0.0262 0.5346 -0.8447
vn -0.0000 1.0000 -0.0000
vn -0.6280 -0.0000 -0.7782
vn -0.5876 -0.3313 -0.7382
vt 0.006836 0.966797
vt 0.007812 0.968750
vt 0.005859 0.968750
vt 0.007812 0.964844
vt 0.007812 0.965820
vt 0.005859 0.965820
vt 0.005859 0.964844
vt 0.007812 0.967773
vt 0.005859 0.967773
vt 0.015625 0.937500
vt 0.015625 0.953125
vt 0.000000 0.953125
vt 0.000000 0.937500
vt 0.000000 0.937500
vt 0.046875 0.890625
vt 0.036133 0.901367
vt 0.031250 0.890625
vt 0.036133 0.927734
vt 0.009766 0.927734
vt 0.046875 0.906250
vt 0.017578 0.909180
vt 0.009766 0.901367
vt 0.017578 0.919922
vt 0.028320 0.919922
vt 0.000000 0.921875
vt 0.031250 0.937500
vt 0.046875 0.921875
vt 0.046875 0.937500
vt 0.028320 0.909180
vt 0.015625 0.890625
vt 0.000000 0.890625
vt 0.000000 0.906250
vt 0.011719 0.958984
vt 0.011719 0.968750
vt 0.009766 0.968750
vt 0.009766 0.958984
s 0
usemtl Material
f 9/1/1 2/2/1 4/3/1 10/1/1
f 10/1/2 4/2/2 8/3/2 11/1/2
f 11/1/3 8/2/3 6/3/3 12/1/3
f 12/1/4 6/2/4 2/3/4 9/1/4
f 3/4/5 7/5/5 5/6/5 1/7/5
f 8/8/6 4/2/6 2/3/6 6/9/6
f 5/4/7 12/1/7 9/1/7 1/7/7
f 7/4/8 11/1/8 12/1/8 5/7/8
f 3/4/9 10/1/9 11/1/9 7/7/9
f 1/4/10 9/1/10 10/1/10 3/7/10
f 13/10/11 14/11/11 16/12/11 15/13/11
f 15/10/12 16/11/12 20/12/12 19/13/12
f 19/10/13 20/11/13 18/12/13 17/13/13
f 17/10/14 18/11/14 14/12/14 13/13/14
f 18/14/15 20/10/15 23/11/15 24/12/15
f 22/14/16 21/10/16 25/11/16 26/12/16
f 16/14/17 14/10/17 21/11/17 22/12/17
f 14/14/18 18/10/18 24/11/18 21/12/18
f 20/14/19 16/10/19 22/11/19 23/12/19
f 25/14/20 28/10/20 32/11/20 29/12/20
f 21/14/21 24/10/21 28/11/21 25/12/21
f 23/14/22 22/10/22 26/11/22 27/12/22
f 24/14/23 23/10/23 27/11/23 28/12/23
f 31/14/24 30/10/24 29/11/24 32/12/24
f 27/14/25 26/10/25 30/11/25 31/12/25
f 28/14/26 27/10/26 31/11/26 32/12/26
f 26/14/27 25/10/27 29/11/27 30/12/27
f 37/15/28 79/16/28 89/17/28
f 71/18/29 43/10/29 48/19/29
f 40/20/30 71/18/30 70/16/30
f 44/21/31 48/19/31 45/22/31
f 48/19/32 46/23/32 72/24/32
f 39/17/33 70/16/33 45/22/33
f 48/19/34 76/14/34 35/25/34
f 71/18/29 42/26/29 43/10/29
f 71/18/35 41/27/35 34/28/35
f 71/18/36 49/29/36 70/16/36
f 48/19/32 72/24/32 71/18/32
f 48/19/37 43/10/37 76/14/37
f 39/17/33 45/22/33 38/30/33
f 73/31/38 38/30/38 45/22/38
f 74/15/39 40/20/39 70/16/39
f 71/18/36 72/24/36 49/29/36
f 45/22/40 35/25/40 36/32/40
f 40/20/30 41/27/30 71/18/30
f 49/29/41 45/22/41 70/16/41
f 73/31/42 45/22/42 36/32/42
f 71/18/43 34/28/43 42/26/43
f 49/29/44 72/24/44 46/23/44
f 44/21/31 46/23/31 48/19/31
f 49/29/44 46/23/44 44/21/44
f 51/15/28 67/16/28 57/17/28
f 65/19/34 52/14/34 54/25/34
f 66/29/44 64/23/44 62/21/44
f 50/31/42 63/22/42 55/32/42
f 63/22/40 54/25/40 55/32/40
f 68/18/29 61/10/29 65/19/29
f 58/20/30 68/18/30 67/16/30
f 68/18/43 53/28/43 60/26/43
f 62/21/31 65/19/31 63/22/31
f 68/18/36 66/29/36 67/16/36
f 66/29/41 63/22/41 67/16/41
f 65/19/32 69/24/32 68/18/32
f 57/17/33 63/22/33 56/30/33
f 51/15/39 58/20/39 67/16/39
f 65/19/37 61/10/37 52/14/37
f 66/29/44 69/24/44 64/23/44
f 50/31/38 56/30/38 63/22/38
f 63/22/40 65/19/40 54/25/40
f 68/18/29 60/26/29 61/10/29
f 58/20/30 59/27/30 68/18/30
f 68/18/35 59/27/35 53/28/35
f 62/21/31 64/23/31 65/19/31
f 68/18/36 69/24/36 66/29/36
f 66/29/41 62/21/41 63/22/41
f 65/19/32 64/23/32 69/24/32
f 57/17/33 67/16/33 63/22/33
f 45/22/40 48/19/40 35/25/40
f 49/29/41 44/21/41 45/22/41
f 83/22/40 81/19/40 92/25/40
f 80/29/41 84/21/41 83/22/41
f 78/18/43 93/28/43 86/26/43
f 74/15/28 70/16/28 39/17/28
f 78/18/35 87/27/35 93/28/35
f 81/19/32 77/24/32 78/18/32
f 37/15/39 88/20/39 79/16/39
f 84/21/31 82/23/31 81/19/31
f 78/18/36 80/29/36 79/16/36
f 80/29/44 82/23/44 84/21/44
f 88/20/30 78/18/30 79/16/30
f 47/31/42 83/22/42 91/32/42
f 78/18/29 86/26/29 85/10/29
f 80/29/44 77/24/44 82/23/44
f 81/19/32 82/23/32 77/24/32
f 83/22/40 92/25/40 91/32/40
f 89/17/33 79/16/33 83/22/33
f 88/20/30 87/27/30 78/18/30
f 89/17/33 83/22/33 90/30/33
f 81/19/37 85/10/37 33/14/37
f 78/18/36 77/24/36 80/29/36
f 84/21/31 81/19/31 83/22/31
f 81/19/34 33/14/34 92/25/34
f 80/29/41 83/22/41 79/16/41
f 78/18/29 85/10/29 81/19/29
f 47/31/38 90/30/38 83/22/38
f 94/33/45 95/34/45 97/35/45 96/36/45
f 98/33/45 99/34/45 101/35/45 100/36/45
f 102/33/45 103/34/45 105/35/45 104/36/45
f 114/1/1 108/2/1 106/3/1 115/1/1
f 115/1/2 106/2/2 113/3/2 116/1/2
f 116/1/3 113/2/3 111/3/3 117/1/3
f 117/1/4 111/2/4 108/3/4 114/1/4
f 107/4/5 112/5/5 110/6/5 109/7/5
f 113/8/6 106/2/6 108/3/6 111/9/6
f 110/4/7 117/1/7 114/1/7 109/7/7
f 112/4/8 116/1/8 117/1/8 110/7/8
f 107/4/46 115/1/46 116/1/46 112/7/46
f 109/4/10 114/1/10 115/1/10 107/7/10
f 118/33/45 119/34/45 121/35/45 120/36/45
f 122/33/45 123/34/45 125/35/45 124/36/45
f 126/33/45 127/34/45 129/35/45 128/36/45
f 138/1/1 132/2/1 130/3/1 139/1/1
f 139/1/2 130/2/2 137/3/2 140/1/2
f 140/1/3 137/2/3 135/3/3 141/1/3
f 141/1/4 135/2/4 132/3/4 138/1/4
f 131/4/5 136/5/5 134/6/5 133/7/5
f 137/8/6 130/2/6 132/3/6 135/9/6
f 134/4/7 141/1/7 138/1/7 133/7/7
f 136/4/8 140/1/8 141/1/8 134/7/8
f 131/4/9 139/1/9 140/1/9 136/7/9
f 133/4/10 138/1/10 139/1/10 131/7/10
f 142/33/45 143/34/45 145/35/45 144/36/45
f 146/33/45 147/34/45 149/35/45 148/36/45
f 150/33/45 151/34/45 153/35/45 152/36/45
