# Blender 4.0.2
# www.blender.org
mtllib Светящийся_одуванчик_002.mtl
o Светящийся_одуванчик.002
v -2.460424 2.315041 -0.675876
v -2.438358 2.156765 -0.656819
v -2.460424 2.315041 -0.588294
v -2.438358 2.156765 -0.607351
v -1.771308 1.336946 0.774357
v -1.793374 1.495223 0.793415
v -1.771308 1.336946 0.724889
v -1.793374 1.495223 0.705833
v -1.721849 1.337885 0.774357
v -1.705807 1.496885 0.793415
v -1.721849 1.337885 0.724889
v -1.705807 1.496885 0.705833
v -1.800674 1.415736 0.802222
v -1.800674 1.415736 0.697025
v -1.695495 1.417733 0.697025
v -1.695495 1.417733 0.802222
v -0.289598 0.000000 0.289598
v -0.386396 0.747695 0.137309
v -0.289598 0.000000 -0.289598
v -0.553947 0.759161 -0.320382
v 0.289598 0.000000 0.289598
v 0.076204 0.889166 0.106411
v 0.289598 0.000000 -0.289598
v -0.083869 0.867198 -0.368568
v -0.929641 1.409425 0.104664
v -0.924374 1.452830 -0.263245
v -0.627387 1.672281 -0.233102
v -0.632655 1.628876 0.134806
v -1.504349 2.191575 0.148945
v -1.508628 2.218943 -0.130075
v -1.269240 2.364549 -0.119465
v -1.264961 2.337180 0.159556
v -1.878235 3.122148 0.230795
v -1.919513 3.123027 0.013860
v -1.704893 3.155375 -0.026847
v -1.663614 3.154496 0.190088
v 0.001851 2.791607 0.449836
v 0.057043 2.791607 0.369441
v -0.011200 2.843159 0.322592
v -0.066392 2.843159 0.402987
v -0.005354 2.362723 0.460842
v 0.064725 2.362723 0.358763
v -0.021924 2.428180 0.299277
v -0.092003 2.428180 0.401356
v -0.157572 2.027230 0.380475
v -0.064972 2.027230 0.245592
v -0.179467 2.113722 0.166990
v -0.272066 2.113722 0.301873
v -0.240479 1.673303 0.094509
v -0.455580 1.345008 -0.071620
v -0.361630 1.673303 0.270981
v -0.593957 1.345008 0.129945
v -0.390276 1.786463 -0.008328
v -0.626676 1.474258 -0.189080
v -0.511426 1.786463 0.168144
v -0.765053 1.474258 0.012485
v -0.690537 2.391249 2.142576
v 1.577111 2.391249 1.472623
v -1.360490 2.391249 -0.125072
v 0.907157 2.391249 -0.795025
v -1.137173 2.664942 0.630811
v -0.913855 2.664942 1.386694
v 0.065345 2.664942 1.919259
v 0.821228 2.664942 1.695941
v 1.353793 2.664942 0.716740
v 1.130475 2.664942 -0.039142
v 0.151275 2.664942 -0.571707
v -0.604608 2.664942 -0.348389
v -0.076944 3.421991 1.014392
v -0.341050 3.116015 1.499990
v -0.232307 3.421991 0.488522
v -0.717905 3.116015 0.224417
v 0.448927 3.421991 0.859029
v 0.934524 3.116015 1.123135
v 0.557669 3.116015 -0.152438
v 0.293564 3.421991 0.333159
v -0.351885 7.775352 -0.228686
v -1.785167 1.480652 0.759128
v -1.785167 2.105652 0.759128
v -1.722667 1.480652 0.759128
v -1.722667 2.105652 0.759128
v -1.785167 2.105652 0.759128
v -1.785167 2.730652 0.759128
v -1.722667 2.105652 0.759128
v -1.722667 2.730652 0.759128
v -1.785167 2.730652 0.759128
v -1.785167 3.355652 0.759128
v -1.722667 2.730652 0.759128
v -1.722667 3.355652 0.759128
v -2.388899 2.157703 -0.607351
v -2.372857 2.316703 -0.588294
v -2.388899 2.157703 -0.656819
v -2.372857 2.316703 -0.675876
v -2.467724 2.235554 -0.579486
v -2.467724 2.235554 -0.684684
v -2.362545 2.237551 -0.684684
v -2.362545 2.237551 -0.579486
v -2.452217 2.300470 -0.622580
v -2.452217 2.925470 -0.622580
v -2.389717 2.300470 -0.622580
v -2.389717 2.925470 -0.622580
v -2.452217 2.925470 -0.622580
v -2.452217 3.550470 -0.622580
v -2.389717 2.925470 -0.622580
v -2.389717 3.550470 -0.622580
v 0.645926 1.590038 -0.048747
v 0.634834 1.431761 -0.075711
v 0.685447 1.590038 -0.126906
v 0.657156 1.431761 -0.119856
v 0.613018 1.432700 -0.142174
v 0.607302 1.591700 -0.166419
v 0.590697 1.432700 -0.098028
v 0.567781 1.591700 -0.088260
v 0.695935 1.510551 -0.131471
v 0.648467 1.510551 -0.037593
v 0.554605 1.512548 -0.085054
v 0.602074 1.512548 -0.178932
v 0.662652 1.575467 -0.100012
v 0.662652 2.200467 -0.100012
v 0.606876 1.575467 -0.128214
v 0.606876 2.200467 -0.128214
v 0.662652 2.200467 -0.100012
v 0.662652 2.825467 -0.100012
v 0.606876 2.200467 -0.128214
v 0.606876 2.825467 -0.128214
v 0.662652 2.825467 -0.100012
v 0.606876 2.825467 -0.128214
v -0.332062 1.255244 1.284965
v -0.343155 1.096968 1.258002
v -0.292542 1.255244 1.206806
v -0.320833 1.096968 1.213856
v -0.364970 1.097907 1.191538
v -0.370687 1.256906 1.167293
v -0.387292 1.097907 1.235684
v -0.410207 1.256906 1.245451
v -0.282053 1.175758 1.202240
v -0.329522 1.175758 1.296119
v -0.423384 1.177754 1.248658
v -0.375915 1.177754 1.154780
v -0.315337 1.240673 1.233700
v -0.315337 1.865673 1.233700
v -0.371112 1.240673 1.205498
v -0.371112 1.865673 1.205498
v -0.315337 1.865673 1.233700
v -0.315337 2.490674 1.233700
v -0.371112 1.865673 1.205498
v -0.371112 2.490674 1.205498
v -0.315337 2.490674 1.233700
v -0.315337 3.115673 1.233700
v -0.371112 2.490674 1.205498
v -0.371112 3.115673 1.205498
v -0.808228 2.939790 1.539778
v 0.974312 2.939790 1.590314
v -0.757691 2.939790 -0.242763
v 1.024849 2.939790 -0.192226
v -0.774537 3.146199 0.351417
v -0.791383 3.146199 0.945597
v -0.214048 3.146199 1.556623
v 0.380132 3.146199 1.573469
v 0.991157 3.146199 0.996134
v 1.008003 3.146199 0.401954
v 0.430669 3.146199 -0.209072
v -0.163512 3.146199 -0.225917
v -0.104236 3.717140 0.874603
v -0.407252 3.486383 1.160910
v -0.092517 3.717140 0.461229
v -0.378824 3.486383 0.158214
v 0.309137 3.717140 0.886322
v 0.595444 3.486383 1.189337
v 0.623872 3.486383 0.186642
v 0.320857 3.717140 0.472949
v -3.263629 2.050398 1.248199
v -0.473475 1.999014 1.469226
v -3.036708 2.682203 -1.469480
v -0.246554 2.630818 -1.248454
v -3.112349 2.787207 -0.490216
v -3.187989 2.576605 0.415678
v -2.333578 2.348876 1.395246
v -1.403527 2.331748 1.468922
v -0.397835 2.525221 0.636704
v -0.322195 2.735822 -0.269189
v -1.176606 2.963552 -1.248757
v -2.106657 2.980680 -1.322433
v -2.104924 3.461900 0.565684
v -2.603659 3.013120 0.896364
v -2.052300 3.608416 -0.064549
v -2.476014 3.368515 -0.632356
v -1.457883 3.449984 0.616941
v -1.034171 2.984216 1.020694
v -0.906525 3.339611 -0.508026
v -1.405260 3.596500 -0.013293
v -2.721428 2.681141 1.454606
v -0.335320 2.636221 0.913146
v -3.239113 3.233459 -0.872550
v -0.853005 3.188540 -1.414010
v -3.047462 3.325253 -0.035597
v -2.874900 3.141147 0.740122
v -1.906969 2.942068 1.335354
v -1.111600 2.927094 1.154868
v -0.488792 3.096227 0.198662
v -0.661354 3.280333 -0.577057
v -1.629285 3.479413 -1.172289
v -2.424654 3.494386 -0.991802
v -1.931970 3.915064 0.583529
v -2.262169 3.522744 0.989266
v -2.052021 4.043148 0.043859
v -2.553372 3.833429 -0.319782
v -1.378627 3.904647 0.457964
v -0.919960 3.497477 0.684689
v -1.211163 3.808161 -0.624358
v -1.498679 4.032731 -0.081706
v -2.069295 3.234610 1.124873
v -0.488321 3.678640 -0.088287
v -3.327901 3.331760 -0.479767
v -1.746927 3.775790 -1.692928
v -2.942079 3.529765 0.095504
v -2.522543 3.497382 0.630384
v -1.576016 3.613009 0.760878
v -1.049025 3.761019 0.356491
v -0.941569 3.941412 -0.582776
v -1.361104 3.973795 -1.117656
v -2.307631 3.858169 -1.248150
v -2.834623 3.710159 -0.843763
v -2.072454 4.310109 0.194814
v -2.088054 3.963084 0.615453
v -2.364326 4.332638 -0.177304
v -2.796031 4.017732 -0.287173
v -1.705824 4.413080 -0.086519
v -1.198740 4.212855 -0.066962
v -1.906718 4.267503 -0.969587
v -1.997696 4.435609 -0.458637
v -1.174106 0.936059 -0.544177
v -1.196172 1.094336 -0.525120
v -1.174106 0.936059 -0.593645
v -1.196172 1.094336 -0.612702
v -1.124647 0.936999 -0.544177
v -1.108606 1.095998 -0.525120
v -1.124647 0.936999 -0.593645
v -1.108606 1.095998 -0.612702
v -1.203472 1.014850 -0.516312
v -1.203472 1.014850 -0.621510
v -1.098293 1.016847 -0.621510
v -1.098293 1.016847 -0.516312
v -1.187965 1.079765 -0.559407
v -1.187965 1.704765 -0.559407
v -1.125465 1.079765 -0.559407
v -1.125465 1.704765 -0.559407
v -1.187965 1.704765 -0.559407
v -1.187965 2.329765 -0.559407
v -1.125465 1.704765 -0.559407
v -1.125465 2.329765 -0.559407
v -1.187965 2.329765 -0.559407
v -1.187965 2.954765 -0.559407
v -1.125465 2.329765 -0.559407
v -1.125465 2.954765 -0.559407
vn -0.9958 0.0915 -0.0000
vn -0.0021 0.1103 -0.9939
vn 0.9916 0.1292 -0.0000
vn -0.0021 0.1103 0.9939
vn 0.0190 -0.9998 -0.0000
vn -0.0190 0.9998 -0.0000
vn 0.0063 -0.3313 0.9435
vn 0.9496 -0.3134 -0.0000
vn 0.0063 -0.3313 -0.9435
vn -0.9370 -0.3492 -0.0000
vn -0.9650 -0.2126 0.1536
vn -0.0373 -0.0818 -0.9959
vn 0.9443 0.2932 -0.1495
vn 0.0017 0.2011 0.9796
vn 0.7643 0.6328 -0.1243
vn -0.8024 -0.5931 -0.0661
vn -0.8217 -0.5562 0.1246
vn -0.0003 0.0028 1.0000
vn -0.0618 0.0900 -0.9940
vn 0.0777 -0.0297 0.9965
vn -0.0286 -0.0693 0.9972
vn -0.0247 0.1466 -0.9889
vn 0.7413 0.6671 0.0741
vn -0.1432 0.9892 0.0313
vn -0.1003 0.0882 -0.9910
vn 0.8846 0.4631 -0.0549
vn -0.9149 -0.3989 0.0613
vn -0.8233 0.0530 -0.5652
vn 0.7345 -0.4541 0.5043
vn -0.5421 0.0450 0.8391
vn 0.8244 0.0007 0.5660
vn -0.5499 0.0307 0.8347
vn 0.5910 0.0506 -0.8051
vn 0.5813 0.0307 -0.8131
vn 0.4358 0.8488 0.2992
vn 0.5883 0.0450 -0.8074
vn -0.5499 0.0306 0.8347
vn -0.5390 0.0506 0.8408
vn -0.6330 0.6406 -0.4346
vn -0.6909 0.5457 -0.4743
vn -0.5971 0.6895 -0.4099
vn 0.6354 -0.6371 0.4362
vn 0.5813 0.0306 -0.8131
vn 0.6911 -0.5452 0.4744
vn 0.4228 0.6694 0.6108
vn -0.7425 0.6694 -0.0230
vn -0.0000 1.0000 -0.0000
vn -0.6108 0.6694 0.4228
vn -0.6303 0.7537 0.1862
vn -0.1862 0.7537 -0.6303
vn 0.6303 0.7537 -0.1862
vn 0.0230 0.6694 -0.7425
vn -0.5911 0.7874 0.1746
vn 0.5911 0.7874 -0.1746
vn 0.1746 0.7874 0.5911
vn -0.1746 0.7874 -0.5911
vn 0.1862 0.7537 0.6303
vn 0.7425 0.6694 0.0230
vn -0.4228 0.6694 -0.6108
vn -0.0230 0.6694 0.7425
vn 0.6108 0.6694 -0.4228
vn -0.0000 -0.0000 -1.0000
vn 0.8887 0.0915 0.4493
vn -0.4466 0.1103 0.8879
vn -0.8849 0.1292 -0.4475
vn 0.4504 0.1103 -0.8860
vn -0.0169 -0.9998 -0.0086
vn 0.0169 0.9998 0.0086
vn 0.4201 -0.3313 -0.8448
vn -0.8474 -0.3134 -0.4285
vn -0.4314 -0.3313 0.8391
vn 0.8362 -0.3492 0.4228
vn -0.4512 -0.0000 0.8924
vn 0.2124 0.6694 0.7119
vn -0.6987 0.6694 -0.2524
vn -0.7119 0.6694 0.2124
vn -0.6570 0.7537 -0.0186
vn 0.0186 0.7537 -0.6570
vn 0.6570 0.7537 0.0186
vn 0.2524 0.6694 -0.6987
vn -0.6162 0.7874 -0.0175
vn 0.6162 0.7874 0.0175
vn -0.0175 0.7874 0.6162
vn 0.0175 0.7874 -0.6162
vn -0.0186 0.7537 0.6570
vn 0.6987 0.6694 0.2524
vn -0.2124 0.6694 -0.7119
vn -0.2524 0.6694 0.6987
vn 0.7119 0.6694 -0.2124
vn 0.1745 0.4885 0.8549
vn -0.6844 0.7175 -0.1298
vn -0.0000 0.9740 0.2264
vn -0.7221 0.6125 0.3215
vn -0.6551 0.7462 0.1188
vn 0.0533 0.8824 -0.4674
vn 0.6551 0.7220 0.2226
vn 0.2889 0.8070 -0.5150
vn -0.6144 0.7783 0.1296
vn 0.6144 0.7557 0.2270
vn -0.0500 0.6279 0.7767
vn 0.0500 0.9061 -0.4201
vn -0.0533 0.5857 0.8087
vn 0.6844 0.5866 0.4330
vn -0.1745 0.8156 -0.5518
vn -0.2889 0.4971 0.8182
vn 0.7221 0.6916 -0.0184
vn 0.4210 0.4885 0.7642
vn -0.6920 0.7175 0.0798
vn 0.0674 0.9740 0.2162
vn -0.5937 0.6125 0.5219
vn -0.5901 0.7461 0.3084
vn -0.0882 0.8824 -0.4621
vn 0.6916 0.7220 0.0175
vn 0.1225 0.8070 -0.5777
vn -0.5480 0.7783 0.3066
vn 0.6541 0.7557 0.0338
vn 0.1835 0.6279 0.7564
vn -0.0773 0.9061 -0.4159
vn 0.1898 0.5857 0.7880
vn 0.7823 0.5866 0.2097
vn -0.3308 0.8156 -0.4748
vn -0.0323 0.4971 0.8671
vn -0.5901 0.7462 0.3084
vn 0.6839 0.6916 -0.2325
vn 0.5195 0.6696 0.5308
vn -0.7852 0.5102 0.3510
vn -0.1427 0.9749 0.1709
vn -0.4986 0.4881 0.7164
vn -0.6165 0.5918 0.5194
vn -0.5127 0.7660 -0.3878
vn 0.4014 0.8777 -0.2617
vn -0.3505 0.7368 -0.5782
vn -0.5897 0.6336 0.5009
vn 0.3650 0.9017 -0.2317
vn 0.2677 0.7383 0.6190
vn -0.4923 0.7970 -0.3499
vn 0.2977 0.7035 0.6454
vn 0.5942 0.7950 -0.1221
vn -0.7105 0.6356 -0.3020
vn 0.1595 0.5685 0.8071
vn 0.3076 0.8171 -0.4875
vn -0.5896 0.6336 0.5009
vt 0.006836 0.966797
vt 0.007812 0.968750
vt 0.005859 0.968750
vt 0.007812 0.964844
vt 0.007812 0.965820
vt 0.005859 0.965820
vt 0.005859 0.964844
vt 0.007812 0.967773
vt 0.005859 0.967773
vt 0.015625 0.937500
vt 0.015625 0.953125
vt 0.000000 0.953125
vt 0.000000 0.937500
vt 0.000000 0.937500
vt 0.046875 0.890625
vt 0.036133 0.901367
vt 0.031250 0.890625
vt 0.009766 0.927734
vt 0.000000 0.921875
vt 0.028320 0.909180
vt 0.017578 0.919922
vt 0.017578 0.909180
vt 0.000000 0.890625
vt 0.009766 0.901367
vt 0.000000 0.906250
vt 0.036133 0.927734
vt 0.046875 0.906250
vt 0.046875 0.937500
vt 0.031250 0.937500
vt 0.028320 0.919922
vt 0.015625 0.890625
vt 0.046875 0.921875
vt 0.011719 0.958984
vt 0.011719 0.968750
vt 0.009766 0.968750
vt 0.009766 0.958984
s 0
usemtl Material
f 94/1/1 3/2/1 1/3/1 95/1/1
f 13/1/1 6/2/1 8/3/1 14/1/1
f 14/1/2 8/2/2 12/3/2 15/1/2
f 15/1/3 12/2/3 10/3/3 16/1/3
f 16/1/4 10/2/4 6/3/4 13/1/4
f 7/4/5 11/5/5 9/6/5 5/7/5
f 12/8/6 8/2/6 6/3/6 10/9/6
f 9/4/7 16/1/7 13/1/7 5/7/7
f 11/4/8 15/1/8 16/1/8 9/7/8
f 7/4/9 14/1/9 15/1/9 11/7/9
f 5/4/10 13/1/10 14/1/10 7/7/10
f 17/10/11 18/11/11 20/12/11 19/13/11
f 19/10/12 20/11/12 24/12/12 23/13/12
f 23/10/13 24/11/13 22/12/13 21/13/13
f 21/10/14 22/11/14 18/12/14 17/13/14
f 22/14/15 24/10/15 27/11/15 28/12/15
f 26/14/16 25/10/16 29/11/16 30/12/16
f 20/14/17 18/10/17 25/11/17 26/12/17
f 18/14/18 22/10/18 28/11/18 25/12/18
f 24/14/19 20/10/19 26/11/19 27/12/19
f 29/14/20 32/10/20 36/11/20 33/12/20
f 25/14/21 28/10/21 32/11/21 29/12/21
f 27/14/22 26/10/22 30/11/22 31/12/22
f 28/14/23 27/10/23 31/11/23 32/12/23
f 35/14/24 34/10/24 33/11/24 36/12/24
f 31/14/25 30/10/25 34/11/25 35/12/25
f 32/14/26 31/10/26 35/11/26 36/12/26
f 30/14/27 29/10/27 33/11/27 34/12/27
f 43/14/28 44/10/28 40/11/28 39/12/28
f 45/14/29 46/10/29 42/11/29 41/12/29
f 48/14/30 45/10/30 41/11/30 44/12/30
f 41/14/31 42/10/31 38/11/31 37/12/31
f 44/14/32 41/10/32 37/11/32 40/12/32
f 49/14/33 53/10/33 47/11/33 46/12/33
f 42/14/34 43/10/34 39/11/34 38/12/34
f 38/14/35 39/10/35 40/11/35 37/12/35
f 46/14/36 47/10/36 43/11/36 42/12/36
f 52/10/37 51/11/37 55/12/37 56/13/37
f 55/14/38 51/10/38 45/11/38 48/12/38
f 53/14/39 55/10/39 48/11/39 47/12/39
f 47/14/40 48/10/40 44/11/40 43/12/40
f 56/10/41 55/11/41 53/12/41 54/13/41
f 50/10/42 49/11/42 51/12/42 52/13/42
f 54/10/43 53/11/43 49/12/43 50/13/43
f 51/14/44 49/10/44 46/11/44 45/12/44
f 58/15/45 74/16/45 64/17/45
f 72/18/46 59/14/46 61/19/46
f 73/20/47 71/21/47 69/22/47
f 57/23/48 70/24/48 62/25/48
f 70/24/49 61/19/49 62/25/49
f 75/26/50 68/10/50 72/18/50
f 65/27/51 75/26/51 74/16/51
f 75/26/52 60/28/52 67/29/52
f 69/22/53 72/18/53 70/24/53
f 75/26/54 73/20/54 74/16/54
f 73/20/55 70/24/55 74/16/55
f 72/18/56 76/30/56 75/26/56
f 64/17/57 70/24/57 63/31/57
f 58/15/58 65/27/58 74/16/58
f 72/18/59 68/10/59 59/14/59
f 73/20/47 76/30/47 71/21/47
f 57/23/60 63/31/60 70/24/60
f 70/24/49 72/18/49 61/19/49
f 75/26/50 67/29/50 68/10/50
f 65/27/51 66/32/51 75/26/51
f 75/26/61 66/32/61 60/28/61
f 69/22/53 71/21/53 72/18/53
f 75/26/54 76/30/54 73/20/54
f 73/20/55 69/22/55 70/24/55
f 72/18/56 71/21/56 76/30/56
f 64/17/57 74/16/57 70/24/57
f 78/33/62 79/34/62 81/35/62 80/36/62
f 82/33/62 83/34/62 85/35/62 84/36/62
f 86/33/62 87/34/62 89/35/62 88/36/62
f 95/1/2 1/2/2 93/3/2 96/1/2
f 96/1/3 93/2/3 91/3/3 97/1/3
f 97/1/4 91/2/4 3/3/4 94/1/4
f 2/4/5 92/5/5 90/6/5 4/7/5
f 93/8/6 1/2/6 3/3/6 91/9/6
f 90/4/7 97/1/7 94/1/7 4/7/7
f 92/4/8 96/1/8 97/1/8 90/7/8
f 2/4/9 95/1/9 96/1/9 92/7/9
f 4/4/10 94/1/10 95/1/10 2/7/10
f 98/33/62 99/34/62 101/35/62 100/36/62
f 102/33/62 103/34/62 105/35/62 104/36/62
f 114/1/63 108/2/63 106/3/63 115/1/63
f 115/1/64 106/2/64 113/3/64 116/1/64
f 116/1/65 113/2/65 111/3/65 117/1/65
f 117/1/66 111/2/66 108/3/66 114/1/66
f 107/4/67 112/5/67 110/6/67 109/7/67
f 113/8/68 106/2/68 108/3/68 111/9/68
f 110/4/69 117/1/69 114/1/69 109/7/69
f 112/4/70 116/1/70 117/1/70 110/7/70
f 107/4/71 115/1/71 116/1/71 112/7/71
f 109/4/72 114/1/72 115/1/72 107/7/72
f 118/33/73 119/34/73 121/35/73 120/36/73
f 122/33/73 123/34/73 125/35/73 124/36/73
f 136/1/63 130/2/63 128/3/63 137/1/63
f 137/1/64 128/2/64 135/3/64 138/1/64
f 138/1/65 135/2/65 133/3/65 139/1/65
f 139/1/66 133/2/66 130/3/66 136/1/66
f 129/4/67 134/5/67 132/6/67 131/7/67
f 135/8/68 128/2/68 130/3/68 133/9/68
f 132/4/69 139/1/69 136/1/69 131/7/69
f 134/4/70 138/1/70 139/1/70 132/7/70
f 129/4/71 137/1/71 138/1/71 134/7/71
f 131/4/72 136/1/72 137/1/72 129/7/72
f 140/33/73 141/34/73 143/35/73 142/36/73
f 144/33/73 145/34/73 147/35/73 146/36/73
f 148/33/73 149/34/73 151/35/73 150/36/73
f 153/15/74 169/16/74 159/17/74
f 167/18/75 154/14/75 156/19/75
f 168/20/47 166/21/47 164/22/47
f 152/23/76 165/24/76 157/25/76
f 165/24/77 156/19/77 157/25/77
f 170/26/78 163/10/78 167/18/78
f 160/27/79 170/26/79 169/16/79
f 170/26/80 155/28/80 162/29/80
f 164/22/81 167/18/81 165/24/81
f 170/26/82 168/20/82 169/16/82
f 168/20/83 165/24/83 169/16/83
f 167/18/84 171/30/84 170/26/84
f 159/17/85 165/24/85 158/31/85
f 153/15/86 160/27/86 169/16/86
f 167/18/87 163/10/87 154/14/87
f 168/20/47 171/30/47 166/21/47
f 152/23/88 158/31/88 165/24/88
f 165/24/77 167/18/77 156/19/77
f 170/26/78 162/29/78 163/10/78
f 160/27/79 161/32/79 170/26/79
f 170/26/89 161/32/89 155/28/89
f 164/22/81 166/21/81 167/18/81
f 170/26/82 171/30/82 168/20/82
f 168/20/83 164/22/83 165/24/83
f 167/18/84 166/21/84 171/30/84
f 159/17/85 169/16/85 165/24/85
f 173/15/90 189/16/90 179/17/90
f 187/18/91 174/14/91 176/19/91
f 188/20/92 186/21/92 184/22/92
f 172/23/93 185/24/93 177/25/93
f 185/24/94 176/19/94 177/25/94
f 190/26/95 183/10/95 187/18/95
f 180/27/96 190/26/96 189/16/96
f 190/26/97 175/28/97 182/29/97
f 184/22/98 187/18/98 185/24/98
f 190/26/99 188/20/99 189/16/99
f 188/20/100 185/24/100 189/16/100
f 187/18/101 191/30/101 190/26/101
f 179/17/102 185/24/102 178/31/102
f 173/15/103 180/27/103 189/16/103
f 187/18/104 183/10/104 174/14/104
f 188/20/92 191/30/92 186/21/92
f 172/23/105 178/31/105 185/24/105
f 185/24/94 187/18/94 176/19/94
f 190/26/95 182/29/95 183/10/95
f 180/27/96 181/32/96 190/26/96
f 190/26/106 181/32/106 175/28/106
f 184/22/98 186/21/98 187/18/98
f 190/26/99 191/30/99 188/20/99
f 188/20/100 184/22/100 185/24/100
f 187/18/101 186/21/101 191/30/101
f 179/17/102 189/16/102 185/24/102
f 193/15/107 209/16/107 199/17/107
f 207/18/108 194/14/108 196/19/108
f 208/20/109 206/21/109 204/22/109
f 192/23/110 205/24/110 197/25/110
f 205/24/111 196/19/111 197/25/111
f 210/26/112 203/10/112 207/18/112
f 200/27/113 210/26/113 209/16/113
f 210/26/114 195/28/114 202/29/114
f 204/22/115 207/18/115 205/24/115
f 210/26/116 208/20/116 209/16/116
f 208/20/117 205/24/117 209/16/117
f 207/18/118 211/30/118 210/26/118
f 199/17/119 205/24/119 198/31/119
f 193/15/120 200/27/120 209/16/120
f 207/18/121 203/10/121 194/14/121
f 208/20/109 211/30/109 206/21/109
f 192/23/122 198/31/122 205/24/122
f 205/24/123 207/18/123 196/19/123
f 210/26/112 202/29/112 203/10/112
f 200/27/113 201/32/113 210/26/113
f 210/26/124 201/32/124 195/28/124
f 204/22/115 206/21/115 207/18/115
f 210/26/116 211/30/116 208/20/116
f 208/20/117 204/22/117 205/24/117
f 207/18/118 206/21/118 211/30/118
f 199/17/119 209/16/119 205/24/119
f 213/15/125 229/16/125 219/17/125
f 227/18/126 214/14/126 216/19/126
f 228/20/127 226/21/127 224/22/127
f 212/23/128 225/24/128 217/25/128
f 225/24/129 216/19/129 217/25/129
f 230/26/130 223/10/130 227/18/130
f 220/27/131 230/26/131 229/16/131
f 230/26/132 215/28/132 222/29/132
f 224/22/133 227/18/133 225/24/133
f 230/26/134 228/20/134 229/16/134
f 228/20/135 225/24/135 229/16/135
f 227/18/136 231/30/136 230/26/136
f 219/17/137 225/24/137 218/31/137
f 213/15/138 220/27/138 229/16/138
f 227/18/139 223/10/139 214/14/139
f 228/20/127 231/30/127 226/21/127
f 212/23/140 218/31/140 225/24/140
f 225/24/129 227/18/129 216/19/129
f 230/26/130 222/29/130 223/10/130
f 220/27/131 221/32/131 230/26/131
f 230/26/141 221/32/141 215/28/141
f 224/22/142 226/21/142 227/18/142
f 230/26/134 231/30/134 228/20/134
f 228/20/135 224/22/135 225/24/135
f 227/18/136 226/21/136 231/30/136
f 219/17/137 229/16/137 225/24/137
f 240/1/1 233/2/1 235/3/1 241/1/1
f 241/1/2 235/2/2 239/3/2 242/1/2
f 242/1/3 239/2/3 237/3/3 243/1/3
f 243/1/4 237/2/4 233/3/4 240/1/4
f 234/4/5 238/5/5 236/6/5 232/7/5
f 239/8/6 235/2/6 233/3/6 237/9/6
f 236/4/7 243/1/7 240/1/7 232/7/7
f 238/4/8 242/1/8 243/1/8 236/7/8
f 234/4/9 241/1/9 242/1/9 238/7/9
f 232/4/10 240/1/10 241/1/10 234/7/10
f 244/33/62 245/34/62 247/35/62 246/36/62
f 248/33/62 249/34/62 251/35/62 250/36/62
f 252/33/62 253/34/62 255/35/62 254/36/62
l 126 127
