# Blender 4.0.2
# www.blender.org
mtllib Улей_001.mtl
o Улей.001
v -0.200524 0.000000 0.183036
v 0.304912 0.464499 0.119673
v -0.200524 0.000000 -0.183036
v 0.304912 0.464499 -0.119673
v 0.303682 0.000000 0.183036
v 0.543789 0.479496 0.119673
v 0.303682 0.000000 -0.183036
v 0.543789 0.479496 -0.119673
v 0.294326 0.943995 0.091470
v 0.294326 0.943995 -0.091470
v 0.477266 0.943995 -0.091470
v 0.477266 0.943995 0.091470
v -0.069225 1.415992 0.069225
v -0.069225 1.415992 -0.069225
v 0.069225 1.415992 -0.069225
v 0.069225 1.415992 0.069225
v -0.253862 1.875338 0.025645
v -0.254834 1.877235 -0.025645
v -0.209148 1.900642 -0.025645
v -0.208176 1.898745 0.025645
v -0.110039 1.565752 0.042083
v -0.110039 1.565752 -0.042083
v -0.144841 1.652537 -0.042083
v -0.144841 1.652537 0.042083
v -0.677095 1.358755 0.031848
v -0.677095 1.358755 -0.031848
v -0.703433 1.424434 -0.031848
v -0.703433 1.424434 0.031848
v -1.261132 1.237559 0.011798
v -1.263504 1.236959 -0.011798
v -1.303747 1.256919 -0.011798
v -1.301375 1.257519 0.011798
v 0.373295 0.646356 -0.166523
v 0.373295 0.504094 -0.166523
v 0.468007 0.646356 -0.166523
v 0.468007 0.504094 -0.166523
v 0.344881 0.689035 -0.090753
v 0.344881 0.461415 -0.090753
v 0.496421 0.461415 -0.090753
v 0.496421 0.689035 -0.090753
v 0.468007 0.461415 -0.090753
v 0.373295 0.461415 -0.090753
v 0.468007 0.689035 -0.090753
v 0.373295 0.689035 -0.090753
v 0.344881 0.646356 -0.090753
v 0.344881 0.504094 -0.090753
v 0.496421 0.646356 -0.090753
v 0.496421 0.504094 -0.090753
v -0.049526 1.560878 0.065923
v -0.086208 1.622782 0.062599
v -0.010048 1.580907 0.003251
v -0.046730 1.642810 -0.000073
v -0.065137 1.657626 0.010681
v -0.089811 1.645108 0.049851
v -0.006446 1.558580 0.015999
v -0.031120 1.546062 0.055169
v -0.097213 1.641353 0.061602
v -0.038522 1.542307 0.066920
v 0.000956 1.562336 0.004248
v -0.057735 1.661381 -0.001070
v -0.015656 1.581502 0.076235
v -0.052339 1.643405 0.072912
v 0.009017 1.594020 0.037065
v -0.027665 1.655923 0.033742
v 0.372831 1.046082 -0.131814
v 0.421792 0.914704 -0.155926
v 0.445789 1.062610 -0.073725
v 0.494750 0.931232 -0.097837
v 0.295581 1.054651 -0.083556
v 0.373918 0.844447 -0.122135
v 0.490651 0.870892 -0.029193
v 0.377406 1.065580 0.041310
v 0.468764 0.865933 -0.046619
v 0.395806 0.849405 -0.104708
v 0.353747 1.076137 -0.008040
v 0.317469 1.059609 -0.066129
v 0.310269 1.015238 -0.090789
v 0.359230 0.883860 -0.114901
v 0.406824 1.004459 0.034691
v 0.475963 0.910305 -0.021959
v 0.253755 0.361052 0.000000
v -0.973674 0.032163 0.000000
v -0.075134 1.588481 0.000000
v -1.302562 1.259592 0.000000
v 0.052405 -0.052405 -1.916016
v 0.091817 0.227752 -0.016035
v 0.027164 0.310245 -0.016035
v 0.091817 0.227752 -0.184003
v 0.027164 0.310245 -0.184003
v 0.109657 0.374898 -0.016035
v 0.174309 0.292405 -0.184003
v 0.109657 0.374898 -0.184003
v 0.170659 0.289544 -0.149943
v 0.072866 0.414323 -0.149943
v 0.283025 0.377609 -0.218064
v 0.185231 0.502388 -0.218064
v 0.164591 0.284788 -0.115089
v 0.066797 0.409567 -0.115089
v 0.289093 0.382365 -0.115089
v 0.191299 0.507144 -0.115089
v 0.165975 0.285873 -0.074087
v 0.068181 0.410652 -0.074087
v 0.287709 0.381280 -0.040913
v 0.189915 0.506059 -0.040913
v 0.097024 0.231834 -0.094121
v -0.000770 0.356613 -0.094121
v -0.010241 0.147766 -0.013816
v -0.108035 0.272545 -0.013816
v 0.100679 0.234698 -0.129514
v 0.002885 0.359477 -0.129514
v -0.023350 0.137492 -0.115727
v -0.121143 0.262271 -0.115727
v 0.096487 0.231413 -0.170207
v -0.001307 0.356192 -0.170207
v -0.027059 0.134585 -0.189774
v -0.124853 0.259364 -0.189774
v 0.165085 1.257457 -0.037832
v 0.258147 1.100374 -0.114400
v 0.286344 1.198519 -0.138011
v 0.203708 1.159539 0.066525
v 0.231905 1.257684 0.042915
v 0.324967 1.100602 -0.033653
v 0.353164 1.198747 -0.057264
v 0.297421 1.112543 -0.016912
v 0.340072 1.260998 -0.052625
v 0.437617 1.088951 0.052447
v 0.480268 1.237405 0.016733
v 0.267344 1.124756 -0.002065
v 0.309995 1.273211 -0.037778
v 0.368193 1.125100 0.119802
v 0.410844 1.273555 0.084089
v 0.238865 1.139147 0.023745
v 0.281516 1.287602 -0.011969
v 0.313522 1.151123 0.162687
v 0.356173 1.299578 0.126973
v 0.197478 1.131927 -0.055696
v 0.240129 1.280382 -0.091409
v 0.052618 1.159809 -0.112795
v 0.095269 1.308264 -0.148508
v 0.225988 1.119518 -0.073227
v 0.268639 1.267973 -0.108941
v 0.115571 1.124013 -0.186408
v 0.158222 1.272468 -0.222121
v 0.251970 1.105228 -0.101600
v 0.294621 1.253683 -0.137314
v 0.166023 1.098021 -0.234201
v 0.208674 1.246476 -0.269915
v -0.287142 1.558138 0.126162
v -0.299158 1.662256 0.126162
v -0.359272 1.549814 -0.025302
v -0.371288 1.653932 -0.025302
v -0.193254 1.568973 0.080855
v -0.205270 1.673091 0.080855
v -0.265384 1.560649 -0.070608
v -0.277400 1.664767 -0.070608
v -0.254911 1.561858 -0.037890
v -0.273087 1.719347 -0.037890
v -0.156278 1.573240 -0.161031
v -0.174453 1.730730 -0.161031
v -0.246851 1.562788 -0.003128
v -0.265026 1.720278 -0.003128
v -0.105151 1.579141 -0.071507
v -0.123326 1.736631 -0.071507
v -0.227668 1.565002 0.033085
v -0.245844 1.722491 0.033085
v -0.074874 1.582635 -0.003860
v -0.093049 1.740125 -0.003860
v -0.314747 1.554952 0.052889
v -0.332922 1.712442 0.052889
v -0.402343 1.544843 0.184215
v -0.420519 1.702333 0.184215
v -0.325786 1.553678 0.018966
v -0.343961 1.711168 0.018966
v -0.461026 1.538071 0.099517
v -0.479202 1.695560 0.099517
v -0.348031 1.551111 -0.015426
v -0.366207 1.708601 -0.015426
v -0.497046 1.533913 0.034783
v -0.515221 1.691404 0.034783
vn -0.6767 0.7363 -0.0000
vn -0.0027 0.1352 -0.9908
vn 0.8942 -0.4477 -0.0000
vn -0.0027 0.1352 0.9908
vn 0.9899 0.1418 -0.0000
vn -0.7922 -0.6102 -0.0000
vn -0.9998 -0.0221 -0.0000
vn -0.0021 0.0595 0.9982
vn -0.0021 0.0595 -0.9982
vn -0.0110 0.0868 0.9962
vn -0.0000 0.0471 0.9989
vn -0.0000 0.0471 -0.9989
vn 0.7565 0.6540 -0.0000
vn -0.4556 0.8892 0.0415
vn -0.0110 0.0864 -0.9962
vn 0.8671 0.4981 0.0005
vn -0.9278 -0.3731 0.0010
vn 0.3429 -0.9394 -0.0000
vn -0.0285 -0.0222 0.9993
vn -0.0157 -0.0063 0.9999
vn -0.0157 -0.0063 -0.9999
vn -0.3780 0.9258 -0.0000
vn -0.4433 -0.8938 0.0673
vn -0.0284 -0.0221 -0.9994
vn -0.2688 0.9632 0.0007
vn 0.2033 -0.9791 0.0012
vn -0.9363 -0.0000 -0.3511
vn -0.0000 -0.8713 -0.4908
vn 0.9363 -0.0000 -0.3511
vn -0.0000 0.8713 -0.4908
vn -0.0000 -0.0000 -1.0000
vn -0.2395 -0.0900 0.9667
vn 0.7240 0.3988 -0.5629
vn -0.1051 0.9646 0.2420
vn 0.7823 -0.5330 0.3224
vn 0.6899 0.4397 0.5751
vn -0.5328 -0.0434 -0.8451
vn 0.5633 -0.6370 -0.5263
vn 0.9098 0.2834 0.3034
vn 0.2167 0.9707 0.1038
vn 0.5368 0.3416 -0.7714
vn -0.0370 0.9698 -0.2412
vn -0.0364 0.9723 -0.2309
vn 0.8123 0.3396 0.4741
vn 0.8624 0.3075 0.4022
vn -0.7871 -0.6169 -0.0000
vn -0.6169 0.7871 -0.0000
vn -0.3390 -0.2656 -0.9025
vn 0.1651 0.1294 -0.9778
vn 0.3996 0.3132 0.8616
vn 0.0686 0.0538 0.9962
vn -0.0974 -0.0763 0.9923
vn 0.7219 -0.3509 -0.5964
vn 0.6375 0.0022 0.7704
vn 0.2690 0.9364 -0.2253
vn 0.3770 -0.3176 -0.8701
vn 0.8396 -0.3426 -0.4216
vn -0.2983 0.3034 0.9050
vn -0.6636 0.3497 0.6613
vn -0.7952 0.3479 0.4965
vn -0.4294 -0.0496 -0.9017
vn 0.8958 0.1034 -0.4323
vn 0.1146 -0.9934 -0.0000
vn -0.1146 0.9934 -0.0000
vn -0.7733 -0.0892 -0.6277
vn -0.2320 -0.0268 -0.9723
vn 0.8247 0.0952 0.5574
vn 0.5059 0.0584 0.8606
vn 0.3153 0.0364 0.9483
vt 0.015625 0.937500
vt 0.015625 0.953125
vt 0.000000 0.953125
vt 0.000000 0.937500
vt 0.000000 0.937500
vt 0.078125 0.969727
vt 0.080067 0.971669
vt 0.078125 0.971680
vt 0.078125 0.976562
vt 0.080067 0.974620
vt 0.080077 0.976562
vt 0.084961 0.976562
vt 0.083019 0.974620
vt 0.084961 0.974609
vt 0.084961 0.969727
vt 0.083019 0.971669
vt 0.083008 0.969727
vt 0.083002 0.976562
vt 0.080078 0.969727
vt 0.078125 0.974609
vt 0.084961 0.971680
vt 0.093750 0.968750
vt 0.125000 0.968750
vt 0.125000 1.000000
vt 0.093750 1.000000
vt 0.011719 0.953125
vt 0.013672 0.953125
vt 0.013672 0.955078
vt 0.011719 0.955078
vt 0.011719 0.956079
vt 0.008771 0.956079
vt 0.008771 0.953125
s 0
usemtl Material
f 1/1/1 2/2/1 4/3/1 3/4/1
f 3/1/2 4/2/2 8/3/2 7/4/2
f 7/1/3 8/2/3 6/3/3 5/4/3
f 5/1/4 6/2/4 2/3/4 1/4/4
f 6/5/5 8/1/5 11/2/5 12/3/5
f 10/5/6 9/1/6 13/2/6 14/3/6
f 4/5/7 2/1/7 9/2/7 10/3/7
f 2/5/8 6/1/8 12/2/8 9/3/8
f 8/5/9 4/1/9 10/2/9 11/3/9
f 13/5/10 16/1/10 20/2/10 17/3/10
f 9/5/11 12/1/11 16/2/11 13/3/11
f 11/5/12 10/1/12 14/2/12 15/3/12
f 12/5/13 11/1/13 15/2/13 16/3/13
f 19/5/14 18/1/14 17/2/14 20/3/14
f 15/5/15 14/1/15 18/2/15 19/3/15
f 16/5/16 15/1/16 19/2/16 20/3/16
f 14/5/17 13/1/17 17/2/17 18/3/17
f 22/5/18 21/1/18 25/2/18 26/3/18
f 25/5/19 28/1/19 32/2/19 29/3/19
f 21/5/20 24/1/20 28/2/20 25/3/20
f 23/5/21 22/1/21 26/2/21 27/3/21
f 24/5/22 23/1/22 27/2/22 28/3/22
f 31/5/23 30/1/23 29/2/23 32/3/23
f 27/5/24 26/1/24 30/2/24 31/3/24
f 28/5/25 27/1/25 31/2/25 32/3/25
f 26/5/26 25/1/26 29/2/26 30/3/26
f 37/6/27 33/7/27 45/8/27
f 38/9/28 34/10/28 42/11/28
f 39/12/29 36/13/29 48/14/29
f 40/15/30 35/16/30 43/17/30
f 36/13/31 34/10/31 33/7/31 35/16/31
f 41/18/28 36/13/28 39/12/28
f 42/11/28 34/10/28 36/13/28 41/18/28
f 43/17/30 35/16/30 33/7/30 44/19/30
f 44/19/30 33/7/30 37/6/30
f 45/8/27 33/7/27 46/20/27
f 46/20/27 34/10/27 38/9/27
f 34/10/27 46/20/27 33/7/27
f 47/21/29 35/16/29 40/15/29
f 48/14/29 36/13/29 35/16/29 47/21/29
f 49/14/32 61/13/32 62/16/32 50/21/32
f 50/21/32 62/16/32 57/15/32
f 63/10/33 51/20/33 64/7/33
f 51/20/33 63/10/33 59/9/33
f 52/8/33 64/7/33 51/20/33
f 53/19/34 64/7/34 60/6/34
f 54/17/34 62/16/34 64/7/34 53/19/34
f 55/11/35 63/10/35 61/13/35 56/18/35
f 56/18/35 61/13/35 58/12/35
f 61/13/36 63/10/36 64/7/36 62/16/36
f 57/15/34 62/16/34 54/17/34
f 58/12/32 61/13/32 49/14/32
f 59/9/35 63/10/35 55/11/35
f 60/6/33 64/7/33 52/8/33
f 69/6/37 65/7/37 77/8/37
f 70/9/38 66/10/38 74/11/38
f 71/12/39 68/13/39 80/14/39
f 72/15/40 67/16/40 75/17/40
f 68/13/41 66/10/41 65/7/41 67/16/41
f 73/18/38 68/13/38 71/12/38
f 74/11/38 66/10/38 68/13/38 73/18/38
f 75/17/42 67/16/42 65/7/42 76/19/42
f 76/19/43 65/7/43 69/6/43
f 77/8/37 65/7/37 78/20/37
f 78/20/37 66/10/37 70/9/37
f 66/10/37 78/20/37 65/7/37
f 79/21/44 67/16/44 72/15/44
f 80/14/45 68/13/45 67/16/45 79/21/45
f 81/22/31 82/23/31 84/24/31 83/25/31
f 86/26/46 87/27/46 89/28/46 88/29/46
f 88/26/31 89/27/31 92/28/31 91/29/31
f 92/26/47 89/27/47 87/28/47 90/29/47
f 93/26/48 94/30/48 96/31/48 95/32/48
f 97/26/31 98/30/31 100/31/31 99/32/31
f 101/26/49 102/30/49 104/31/49 103/32/49
f 105/26/50 106/30/50 108/31/50 107/32/50
f 109/26/51 110/30/51 112/31/51 111/32/51
f 113/26/52 114/30/52 116/31/52 115/32/52
f 118/26/53 119/27/53 123/28/53 122/29/53
f 122/26/54 123/27/54 121/28/54 120/29/54
f 123/26/55 119/27/55 117/28/55 121/29/55
f 124/26/56 125/30/56 127/31/56 126/32/56
f 128/26/53 129/30/53 131/31/53 130/32/53
f 132/26/57 133/30/57 135/31/57 134/32/57
f 136/26/58 137/30/58 139/31/58 138/32/58
f 140/26/59 141/30/59 143/31/59 142/32/59
f 144/26/60 145/30/60 147/31/60 146/32/60
f 150/26/61 151/27/61 155/28/61 154/29/61
f 154/26/62 155/27/62 153/28/62 152/29/62
f 150/26/63 154/27/63 152/28/63 148/29/63
f 155/26/64 151/27/64 149/28/64 153/29/64
f 156/26/65 157/30/65 159/31/65 158/32/65
f 160/26/61 161/30/61 163/31/61 162/32/61
f 164/26/66 165/30/66 167/31/66 166/32/66
f 168/26/67 169/30/67 171/31/67 170/32/67
f 172/26/68 173/30/68 175/31/68 174/32/68
f 176/26/69 177/30/69 179/31/69 178/32/69
