# Blender 4.0.2
# www.blender.org
mtllib Валун_002.mtl
o Валун.002
v -0.500000 0.000000 0.753208
v -0.459178 0.847003 0.520137
v -0.491612 0.047481 -0.868912
v -0.301981 0.787326 -0.554227
v 0.500000 0.000000 0.753208
v 0.540197 1.116968 0.719422
v 0.500000 0.000000 -0.722660
v 0.462425 0.871708 -0.492079
v 0.777880 0.652259 -0.380702
v 0.908298 0.000000 -0.480256
v 0.908298 0.000000 0.371348
v 0.724515 0.490434 0.371348
v -1.012180 0.000000 -0.488374
v -1.012180 0.000000 0.351552
v -0.941435 0.710004 0.301582
v -0.524487 0.748472 -0.416057
vn 0.0908 -0.9959 -0.0000
vn 0.1530 0.3533 -0.9229
vn 0.8710 -0.0165 0.4909
vn -0.0000 0.2653 0.9642
vn -0.0435 -0.9986 -0.0295
vn -0.2230 0.9581 -0.1797
vn 0.9364 0.3509 -0.0000
vn -0.0000 -1.0000 -0.0000
vn 0.5052 0.8356 0.2157
vn 0.4972 0.2272 -0.8374
vn -0.9951 0.0992 -0.0000
vn -0.5274 0.4434 -0.7247
vn -0.6129 0.1161 0.7816
vn -0.2363 0.9679 -0.0854
vn 0.0228 -0.9993 -0.0291
vn 0.0500 0.2574 -0.9650
vn 0.6617 0.2480 0.7075
vn -0.2050 0.0370 0.9781
vn -0.1038 0.9921 -0.0703
vn 0.9779 0.1791 0.1079
vn 0.9295 0.3454 -0.1296
vn 0.4697 0.2446 -0.8483
vn -0.7473 0.5261 -0.4060
vn -0.5576 0.4318 -0.7089
vn -0.4585 0.2563 0.8510
vn -0.2233 0.9709 -0.0866
vt 0.121094 0.909180
vt 0.121094 0.910156
vt 0.140625 0.937500
vt 0.109375 0.906250
vt 0.140625 0.906250
vt 0.109375 0.937500
vt 0.122070 0.909180
vt 0.124531 0.928175
vt 0.131329 0.934973
vt 0.124531 0.934973
vt 0.122070 0.910156
vt 0.131329 0.928175
s 0
usemtl Material
f 3/1/1 14/2/1 13/1/1
f 4/3/2 7/4/2 3/5/2
f 5/4/3 12/3/3 6/6/3
f 5/5/4 2/6/4 1/4/4
f 7/7/5 1/2/5 3/1/5
f 8/8/6 2/9/6 6/10/6
f 10/5/7 12/6/7 11/4/7
f 7/7/8 11/11/8 5/11/8
f 8/8/9 12/9/9 9/10/9
f 7/5/10 9/6/10 10/4/10
f 15/3/11 13/4/11 14/5/11
f 3/4/12 16/3/12 4/6/12
f 1/5/13 15/6/13 14/4/13
f 2/8/14 16/9/14 15/10/14
f 3/1/15 1/2/15 14/2/15
f 4/3/16 8/6/16 7/4/16
f 5/4/17 11/5/17 12/3/17
f 5/5/18 6/3/18 2/6/18
f 7/7/8 5/11/8 1/2/8
f 8/8/19 4/12/19 2/9/19
f 10/5/20 9/3/20 12/6/20
f 7/7/8 10/7/8 11/11/8
f 8/8/21 6/12/21 12/9/21
f 7/5/22 8/3/22 9/6/22
f 15/3/23 16/6/23 13/4/23
f 3/4/24 13/5/24 16/3/24
f 1/5/25 2/3/25 15/6/25
f 2/8/26 4/12/26 16/9/26
