# Blender 4.0.2
# www.blender.org
mtllib Валун_005.mtl
o Валун.005
v -0.500000 0.030809 0.826491
v -0.500000 1.073804 0.299284
v -0.500000 0.000000 -0.768206
v -0.500000 0.468679 -0.706359
v 0.500000 0.030809 0.826491
v 0.363687 1.090283 0.223740
v 0.500000 0.000000 -0.597764
v 0.714999 0.739199 -0.648545
v 1.012563 0.765034 -0.302056
v 0.908298 0.000000 -0.399146
v 0.908298 0.000000 0.298632
v 0.725346 0.629993 0.319365
v -1.012180 0.000000 -0.405797
v -1.012180 0.000257 0.532704
v -1.012180 0.808256 0.189604
v -1.012180 0.498091 -0.424749
vn 0.0137 -0.9997 0.0193
vn 0.1666 0.1290 -0.9775
vn 0.4202 0.4890 0.7644
vn -0.0000 0.4511 0.8925
vn -0.0033 -0.9998 0.0193
vn -0.0517 0.9191 -0.3907
vn 0.9908 -0.1350 -0.0000
vn -0.0474 -0.9986 0.0216
vn -0.2144 0.9703 0.1118
vn 0.4368 0.0544 -0.8979
vn -1.0000 -0.0000 -0.0000
vn -0.4735 0.1152 -0.8732
vn -0.4828 0.3423 0.8061
vn -0.3440 0.8382 -0.4232
vn 0.0594 -0.9982 0.0003
vn 0.0668 -0.0877 -0.9939
vn 0.7797 0.2070 0.5910
vn 0.0660 0.4998 0.8636
vn -0.0000 -0.9998 0.0216
vn -0.1640 0.8452 -0.5086
vn 0.8617 0.2355 0.4494
vn -0.0000 -1.0000 -0.0000
vn 0.7785 0.6246 0.0621
vn 0.7423 -0.2584 -0.6182
vn -0.5773 -0.0310 -0.8159
vn -0.3911 0.4152 0.8214
vn -0.2281 0.8342 -0.5020
vt 0.121094 0.910156
vt 0.121094 0.909180
vt 0.140625 0.937500
vt 0.109375 0.906250
vt 0.140625 0.906250
vt 0.109375 0.937500
vt 0.122070 0.909180
vt 0.124531 0.928175
vt 0.131329 0.934973
vt 0.124531 0.934973
vt 0.122070 0.910156
vt 0.131329 0.928175
s 0
usemtl Material
f 1/1/1 13/2/1 3/2/1
f 4/3/2 7/4/2 3/5/2
f 5/4/3 12/3/3 6/6/3
f 5/5/4 2/6/4 1/4/4
f 7/7/5 1/1/5 3/2/5
f 8/8/6 2/9/6 6/10/6
f 9/3/7 11/4/7 10/5/7
f 7/7/8 11/11/8 5/11/8
f 8/8/9 12/9/9 9/10/9
f 7/5/10 9/6/10 10/4/10
f 15/3/11 13/4/11 14/5/11
f 3/4/12 16/3/12 4/6/12
f 1/5/13 15/6/13 14/4/13
f 2/8/14 16/9/14 15/10/14
f 1/1/15 14/1/15 13/2/15
f 4/3/16 8/6/16 7/4/16
f 5/4/17 11/5/17 12/3/17
f 5/5/18 6/3/18 2/6/18
f 7/7/19 5/11/19 1/1/19
f 8/8/20 4/12/20 2/9/20
f 9/3/21 12/6/21 11/4/21
f 7/7/22 10/7/22 11/11/22
f 8/8/23 6/12/23 12/9/23
f 7/5/24 8/3/24 9/6/24
f 15/3/11 16/6/11 13/4/11
f 3/4/25 13/5/25 16/3/25
f 1/5/26 2/3/26 15/6/26
f 2/8/27 4/12/27 16/9/27
