# Blender 4.0.2
# www.blender.org
mtllib Валун_004.mtl
o Валун.004
v -0.500000 0.000000 0.611517
v -0.426909 1.339285 0.500000
v -0.500000 0.000000 -0.768206
v -0.432733 1.252522 -0.670442
v 0.500000 0.000000 0.611517
v 0.529255 0.787392 0.512434
v 0.500000 0.000000 -0.597764
v 0.491922 0.708855 -0.487566
v 0.765855 0.334087 -0.399146
v 0.908298 0.000000 -0.399146
v 0.908298 0.000000 0.298632
v 0.765855 0.334087 0.298632
v -1.012180 0.000000 -0.405797
v -1.012180 0.000000 0.282412
v -0.950505 1.186389 0.282412
v -0.950505 1.186389 -0.405797
vn -0.0000 -1.0000 -0.0000
vn 0.1676 0.0678 -0.9835
vn 0.7289 0.0587 0.6821
vn -0.0000 0.0830 0.9966
vn 0.4989 0.8624 -0.0864
vn 0.9199 0.3922 -0.0000
vn 0.8073 0.5901 -0.0000
vn 0.4300 0.1833 -0.8840
vn -0.9987 0.0519 -0.0000
vn -0.4626 0.0937 -0.8816
vn -0.5404 0.0281 0.8410
vn -0.2803 0.9599 -0.0000
vn 0.2763 0.1507 -0.9492
vn 0.5888 0.2510 0.7683
vn 0.0578 0.1225 0.9908
vn 0.5154 0.8544 -0.0659
vn 0.8702 0.4876 -0.0708
vn 0.4731 0.1406 -0.8697
vn -0.5773 0.0300 -0.8159
vn -0.4061 0.0978 0.9086
vn -0.1626 0.9841 -0.0721
vt 0.121094 0.910156
vt 0.121094 0.909180
vt 0.140625 0.937500
vt 0.109375 0.906250
vt 0.140625 0.906250
vt 0.109375 0.937500
vt 0.122070 0.909180
vt 0.124531 0.928175
vt 0.131329 0.934973
vt 0.124531 0.934973
vt 0.122070 0.910156
vt 0.131329 0.928175
s 0
usemtl Material
f 1/1/1 13/2/1 3/2/1
f 4/3/2 7/4/2 3/5/2
f 5/4/3 12/3/3 6/6/3
f 5/5/4 2/6/4 1/4/4
f 7/7/1 1/1/1 3/2/1
f 8/8/5 2/9/5 6/10/5
f 9/3/6 11/4/6 10/5/6
f 7/7/1 11/11/1 5/11/1
f 8/8/7 12/9/7 9/10/7
f 7/5/8 9/6/8 10/4/8
f 15/3/9 13/4/9 14/5/9
f 3/4/10 16/3/10 4/6/10
f 1/5/11 15/6/11 14/4/11
f 2/8/12 16/9/12 15/10/12
f 1/1/1 14/1/1 13/2/1
f 4/3/13 8/6/13 7/4/13
f 5/4/14 11/5/14 12/3/14
f 5/5/15 6/3/15 2/6/15
f 7/7/1 5/11/1 1/1/1
f 8/8/16 4/12/16 2/9/16
f 9/3/6 12/6/6 11/4/6
f 7/7/1 10/7/1 11/11/1
f 8/8/17 6/12/17 12/9/17
f 7/5/18 8/3/18 9/6/18
f 15/3/9 16/6/9 13/4/9
f 3/4/19 13/5/19 16/3/19
f 1/5/20 2/3/20 15/6/20
f 2/8/21 4/12/21 16/9/21
