# Blender 4.0.2
# www.blender.org
mtllib Внешняя_стена_002.mtl
o Внешняя_стена.002
v -0.500000 0.000000 0.125000
v -0.500000 1.000000 0.125000
v -0.500000 0.000000 -0.125000
v -0.500000 1.000000 -0.125000
v 0.500000 0.000000 0.125000
v 0.500000 1.000000 0.125000
v 0.500000 0.000000 -0.125000
v 0.500000 1.000000 -0.125000
v -0.500000 2.000000 0.125000
v -0.500000 2.000000 -0.125000
v 0.500000 2.000000 0.125000
v 0.500000 2.000000 -0.125000
vn -1.0000 -0.0000 -0.0000
vn -0.0000 -0.0000 -1.0000
vn 1.0000 -0.0000 -0.0000
vn -0.0000 -0.0000 1.0000
vn -0.0000 1.0000 -0.0000
vt 0.083008 0.953125
vt 0.083008 0.968750
vt 0.079102 0.968750
vt 0.079102 0.953125
vt 0.094727 0.953125
vt 0.094727 0.968750
vt 0.079102 0.964844
vt 0.094727 0.964844
vt 0.094727 0.967773
vt 0.079102 0.967773
s 0
usemtl Material
f 1/1/1 2/2/1 4/3/1 3/4/1
f 3/5/2 4/6/2 8/3/2 7/4/2
f 7/1/3 8/2/3 6/3/3 5/4/3
f 5/5/4 6/6/4 2/3/4 1/4/4
f 4/4/1 2/1/1 9/2/1 10/3/1
f 12/7/5 10/8/5 9/9/5 11/10/5
f 2/4/4 6/5/4 11/6/4 9/3/4
f 8/4/2 4/5/2 10/6/2 12/3/2
f 6/4/3 8/1/3 12/2/3 11/3/3
